<?xml version="1.0" encoding="utf-8"?>
<!-- Generator: Adobe Illustrator 23.0.3, SVG Export Plug-In . SVG Version: 6.00 Build 0)  -->
<svg version="1.1" id="Слой_1" xmlns="http://www.w3.org/2000/svg" xmlns:xlink="http://www.w3.org/1999/xlink" x="0px" y="0px"
	 viewBox="0 0 200 200" style="enable-background:new 0 0 200 200;" xml:space="preserve">
<style type="text/css">
	.st0{fill:#B3072A;}
	.st1{fill:#BE2B49;}
</style>
<g>
	<path class="st0" d="M96.8,66.7C97.9,55.4,86.6,42.5,77,37.6c-13.5-6.9-34-5.3-46.6,3.2c-23.9,16-19.6,53.9-2.3,72.6
		c5.9,6.4,13.1,13.2,19.9,18.5c8.9,6.9,19.3,10.9,28.3,17.7c14.4,10.8,27.5,22.8,40.8,34.4c6.8-14.3,18.6-25.3,26.5-39.3
		c7.6-13.6,16.6-25.3,26-37.6c14.6-19.1,21.3-55.3,4.9-75c-15-18.1-39.7-30.8-60.1-13.3c-6.7,5.8-13.5,14.8-17.1,22.8
		c-3.6,8-0.3,18.1-3.4,25.3"/>
	<g>
		<g>
			<g>
				<g>
					<g>
						<path class="st1" d="M97.9,52.7c0,1.3-0.3,2.4-0.4,1.9c0.4,2.7-0.1,2.8,0.7,3.1c0.3,1.8-0.3,3.7-0.5,1.6
							c0.1,1.7,0.1,3.5-0.2,5.4c0.3-1.1,0.5-2.2,0.6-3.3c0.1,0.2,0.1,0.7,0.1,1.2c-0.1,0.6-0.2,1.2-0.3,1.9c-0.2,0.7-0.4,1.4-0.5,2
							c-0.2,0.6-0.3,1.1-0.2,1.5c0.9-2.1,1.2-4.2,1.4-6.2l0.2,0.3c0-1.4,0.1-3.9,0.2-4.8c0.1,0.1,0.3,0,0.3,1
							c0.1-3.4-0.2-3.7-0.5-4.1C98.4,54.2,98,54,98,51.4C98,51.7,98,52.1,97.9,52.7z"/>
						<path class="st1" d="M99.7,47.7l-0.2-1l-0.2-1c0.1-0.5,0.3-1,0.5-1.5c0.2-0.5,0.4-0.9,0.6-1.4c-0.2-0.1,0.7-2.6-0.3-1.1
							c-0.1,0.3-0.3,1-0.5,1.4c-0.1-0.1-0.1-0.4,0-0.9c0.1-0.4,0.3-0.9,0.5-1.4c0.4-0.9,0.7-1.7,0.2-1.4c-0.6,1.3-0.9,2.1-1.2,2.7
							c-0.2,0.6-0.3,1.1-0.4,1.9c-0.7,2.3-1,4.1-1.3,5.3c0,0.8,0.4,0.9,0.4,1.9c0-0.2,0-0.4,0-0.7l0.9-0.1c-0.2-0.8,0-1.5,0.1-2.4
							c0.2,1.4,0.4,2.7,0.8,4.1c0.4-0.7,0.5-2,0.7-3.3c0.1-1.3,0.3-2.5,0.6-3.1c-0.5,0.7-0.5,0.4-0.6,0.3c0-0.1,0-0.1-0.2,0.1
							C100.1,46.4,100,46.8,99.7,47.7z"/>
						<path class="st1" d="M98,51.3c0,0,0,0.1,0,0.1C98,51.4,98,51.3,98,51.3z"/>
						<path class="st1" d="M78.6,154.3c-0.7-0.6-1.1-0.6-1.3-0.6c2.8,2.1,5.5,4.3,8.2,6.5c-0.1-0.4-2.3-2.5-0.6-1.3
							c-0.5-0.8-2.8-2.3-3.3-2.3l0.8,0.2c-2.2-1.2-2.9-2.9-1.5-2.1l-0.2-0.1c-2.1-0.9-4.2-1.8-6.3-2.7
							C76.2,153.4,76.2,152.5,78.6,154.3z"/>
						<path class="st1" d="M93.8,51.3c-0.8-1.2-1-1.2-1-1.1C93.2,50.6,93.5,51,93.8,51.3z"/>
						<path class="st1" d="M72.9,151.3c-0.6-0.2-1.3-0.5-2-0.7C71.7,150.9,72.4,151.2,72.9,151.3z"/>
						<path class="st1" d="M89.4,153.9C89.4,153.9,89.4,153.9,89.4,153.9l-0.9-0.5c0,0,0,0,0,0C88.8,153.6,89.1,153.7,89.4,153.9z"
							/>
						<path class="st1" d="M32,125c-0.2-0.2-0.3-0.3-0.5-0.5C31.6,124.7,31.8,124.9,32,125z"/>
						<path class="st1" d="M113.2,170.4l-3.9-2.7c0.6,0.2-1.1-1.2-0.2-0.8c-0.3-0.2-1.6-1.2-1.4-0.9l0.7,0.6
							c-2.3-1.1-1.4,0.1-4.8-2.2c1.7,2,2.8,2.5,4,3.1c0.4,0.3,0.7,0.5,1,0.7l3.6,1.9L113.2,170.4z"/>
						<path class="st1" d="M35.5,40.5L35.5,40.5C35.5,40.6,35.5,40.6,35.5,40.5z"/>
						<path class="st1" d="M35.4,40.9l0.1-0.3C35.3,40.8,34.6,41.3,35.4,40.9z"/>
						<path class="st1" d="M73.8,151.4c-0.1,0.1-0.4,0-0.9-0.1l1.4,0.6C74.2,151.7,74,151.5,73.8,151.4z"/>
						<path class="st1" d="M77.5,152.2l3.2,2.3l1.4,0.6C80.8,154.4,79.3,153.3,77.5,152.2z"/>
						<path class="st1" d="M36.4,129.7c-6.3-5.6,2.1,0.8-0.6-2c-1.8-1.5-2.6-1.8-3.8-2.7c5.1,4.4-1.6,0.3,3.5,4.8
							c-1.2-0.1-4.1-2.8-5.6-4.5c-1.4-2.3,2,1.2,2.9,1.1c-2-1.8-1.8-1.4-2.9-1.9c-1.5-1.6-3.2-3-4.6-4.3c-0.7-0.7-1.4-1.3-2-2
							c-0.6-0.7-1.1-1.4-1.3-2.1c-2.3-2.5-2.4-2.2-3.8-3.6c-0.4,0,0.2,1.2,1.1,2.4c0.4,0.6,0.9,1.3,1.3,1.9c0.4,0.6,0.7,1.1,0.9,1.4
							c-0.1-0.2-0.4-0.7-0.2-0.7l1,1.2l0.9,1c-1.6-2,0.8-0.2,1.8,0.7c0.7,0.7,2.1,2.1,1.8,2l-1.2-1c1.2,1.6,3.4,2.7,4.5,4.4
							c0,0.2-0.6-0.3-0.8-0.3c2,1.2,3.6,2.8,6.3,4.8l-1.9-0.8c2.5,1.3,7,5.5,10.2,8.5c-0.4-0.4-0.9-1-0.5-0.8c2.2,1.5,3.6,3,2.3,2.6
							c1.2,0.5,3.2,2,5.3,3.4c2.1,1.4,4.3,2.7,5.9,3.2c5,1.4,9.7,2.5,14.2,4.1c-0.5-0.2-1-0.5-1.5-0.7c-0.7-1.2-1.4-1.5,0.9-0.8
							c-2.1-0.9-1.6,0-4.5-1.7c1.3,0.4,2-0.1-0.8-1.8c-7.4-3.5-13.3-4.4-20.7-8.8c0-0.3-1.2-1.4-2.8-2.7c-1.5-1.3-3.3-2.8-4.4-3.9
							c1.2,0.4,3,1.8,4.9,3.2c-1.1-1-3-2.6-4.4-3.9L36.4,129.7z"/>
						<path class="st1" d="M53.4,140.6c-0.2-0.1-0.3-0.3-0.5-0.4C53,140.2,53.1,140.4,53.4,140.6z"/>
						<path class="st1" d="M42.6,133.8C42.7,133.8,42.7,133.8,42.6,133.8c-0.1-0.2-0.3-0.3-0.5-0.5
							C42.3,133.5,42.5,133.7,42.6,133.8z"/>
						<path class="st1" d="M72.9,149.4c0.5,0.2,0.8,0.3,1.3,0.5c-0.3-0.1-0.6-0.3-0.9-0.5C72.9,149.2,72.7,149.2,72.9,149.4z"/>
						<path class="st1" d="M73.7,151l-0.3,0c0.2,0.1,0.3,0.2,0.4,0.3C73.9,151.3,73.9,151.2,73.7,151z"/>
						<path class="st1" d="M18.9,102.3l-0.5-0.7C18.6,102.1,18.8,102.2,18.9,102.3z"/>
						<path class="st1" d="M30.2,122.6c2.1,2,0.7-0.3,3.7,2.6l-0.8-0.9c2.3,1.8,6.1,5.4,8.8,7.7c-0.5,0,1.4,1.6,0.8,1.7
							c1,0.7,1.9,1.4,2.9,2c0.9,0.6,1.8,1,2.4,1.2c1.2,1,3.3,1.9,4.9,3.1c-0.5-0.7,2.8,0.6-1.3-1.5c0.3,0.2,0.2,0,0.5,0.2
							c-2.3-1.9-3.7-2.1-5.8-3.7c-1.1-1.2,2.3,1.2,1.2,0.2c-2.8-1.7-7.6-6.6-8.1-5.7c-1.8-1.5-1.9-1.9-2.3-2.5
							c-1.7-0.8-4.1-3.3-6.2-5.4c-2-2.1-3.7-3.9-4.2-3.5c1,0.9,2.5,2.5,4.1,3.7L30.2,122.6z"/>
						<path class="st1" d="M68.9,146.9c-0.1-0.1-0.3-0.2-0.5-0.3C68.6,146.7,68.7,146.8,68.9,146.9z"/>
						<path class="st1" d="M94.3,171.9l-1.5-0.1c-5.2-4.2-6.9-6-11.5-9.6c-0.3-0.4,0.3,0,0.6,0.2c-1.6-1.3-3.6-2.8-5.5-4.3
							c-1-0.7-1.9-1.4-2.8-2c-0.9-0.6-1.7-1.1-2.3-1.4c-0.9-0.7-3.5-2.7-2.3-2.3c-0.6-0.3-1.2-0.6-1.7-1c0-0.4,1.4,0.8,1.5,0.6
							c-0.5-0.3-0.6-0.5-0.8-0.5c0.9,0.3-0.2-1.5,3.4,0.9c0.9,1.6-2.5-1.6-2.2-0.4c1.2,0.8,1.2,0.4,1.4,0.4c1.5,1,1.3,1.2,1.1,1.3
							c0.7,0.1,2.4,1.9,3.4,2.2c3,2.2-0.5,0.4,1.4,1.9l1.6,0.2l3.1,2.7c4.8,3.5,0.3-1.7,5.8,2.2c-1-0.2,0.6,2.1,2.9,4.2
							c-1.5-1.2-4.5-3-6.2-4.7c2.2,2.7-3.7-2.9-2.8-1.2c1.5,0.8,3.7,2.5,5.3,4.1l-0.6-0.4c1.7,1.6,3.7,2,5.9,4.4c1.2,1,0.9,1,0.5,1
							C93.4,171,94.5,171.7,94.3,171.9z M91.6,169.7l-1.6-1.5C90.3,168.7,90.9,169.2,91.6,169.7z"/>
						<path class="st1" d="M114,24.3c-0.2,0.1-0.3,0.3-0.5,0.4C113.7,24.7,113.8,24.5,114,24.3z"/>
						<path class="st1" d="M143.4,136.5l0.7-1.1C143.8,135.8,143.6,136.2,143.4,136.5z"/>
						<path class="st1" d="M157.4,111.3l1-1.6C158,110.3,157.7,110.8,157.4,111.3z"/>
						<path class="st1" d="M125,16.5L125,16.5c0.1-0.1,0.2-0.1,0.3-0.2L125,16.5z"/>
						<path class="st1" d="M178.9,64c0.1-0.3,0.1-0.5,0.2-0.9C179.1,63.1,179,63.5,178.9,64z"/>
						<path class="st1" d="M157.3,111.6C157.3,111.6,157.3,111.5,157.3,111.6c0.1-0.1,0.1-0.2,0.2-0.3L157.3,111.6z"/>
						<path class="st1" d="M135,145.8c-0.1,0.2-0.2,0.4-0.3,0.7C134.9,146.1,135,145.9,135,145.8z"/>
						<path class="st1" d="M137.9,145.6c-0.1,0.2-0.2,0.5-0.3,0.7L137.9,145.6z"/>
						<path class="st1" d="M115.5,174.6C115.5,174.7,115.5,174.7,115.5,174.6l-0.2,0l-0.2-0.1c0.1,0.1,0.2,0.1,0.2,0.1
							C115.5,174.7,115.5,174.7,115.5,174.6z"/>
						<path class="st1" d="M135.1,148.9c0,0.1,0,0.2,0,0.3C135.2,149,135.2,148.9,135.1,148.9z"/>
						<path class="st1" d="M105.4,30.6C105.4,30.5,105.4,30.5,105.4,30.6l0-0.2L105.4,30.6z"/>
						<path class="st1" d="M104.1,34.6c-0.2,0.4-0.5,0.8-0.7,1.2C103.7,35.4,103.9,34.9,104.1,34.6z"/>
						<path class="st1" d="M176.3,41.7c-0.1-0.4-0.4-1.3,0-1C175.7,40.1,175.4,40.3,176.3,41.7z"/>
						<path class="st1" d="M106.6,20.7c-0.1,0.3-0.3,0.6-0.5,0.9C106.5,21.1,106.8,20.6,106.6,20.7z"/>
						<path class="st1" d="M106.2,21.7c-0.2,0.3-0.3,0.6-0.5,0.8C105.9,22.2,106,21.9,106.2,21.7z"/>
						<path class="st1" d="M186.3,50.4c0,0.1,0,0.3,0,0.6C186.4,50.9,186.4,50.7,186.3,50.4z"/>
						<path class="st1" d="M102.6,36.7c0,0.3-2.6,5.9,0,1.4c0.4,0.5-1.4,3-1.8,4.3c0.5-0.8,0.2,0.6,0.5,0.4c0.2-0.6,0.4-1.4,0.9-2.4
							c0.5-0.3-0.1,1.2-0.8,2.4c0.5-0.6,0.4-0.1,0.3,0.3c0,0.2-0.1,0.4,0,0.4c0,0,0.2-0.1,0.5-0.6c0.9-2.2,1.8-4,2.7-5.7
							c0.8-1.7,1.6-3.3,2.2-5c-1.6,2.4-3.1,5.1-4.4,7c0-0.4,0-0.7,0-1.1c1.7-2,2.3-3.6,3.9-5.7c-1.2,1.5-2.4,3.1-3.5,4.7
							c-1.8,2.1-1,0.5,0.1-1.4C103.1,36.3,102.8,36.6,102.6,36.7z"/>
						<path class="st1" d="M100.9,30.7L100.9,30.7c-0.1,0.2-0.2,0.3-0.2,0.3L100.9,30.7z"/>
						<path class="st1" d="M118.9,191.6l-0.1,0.4c-0.1,0-0.2,0.1-0.3,0c0.2,0.1,0.3,0.1,0.3,0C118.9,191.8,118.9,191.6,118.9,191.6z
							"/>
						<path class="st1" d="M105.2,29.2L105.2,29.2C105.2,29.2,105.2,29.2,105.2,29.2z"/>
						<path class="st1" d="M128.2,175.1C128.2,175.2,128.2,175.2,128.2,175.1C128.2,175.2,128.2,175.2,128.2,175.1z"/>
						<path class="st1" d="M120.7,165.5c0,0-0.1,0-0.1,0C120.4,165.8,120.5,165.7,120.7,165.5z"/>
						<path class="st1" d="M128.2,175.1C128.2,175.1,128.2,175.1,128.2,175.1C128.2,175.1,128.2,175.1,128.2,175.1z"/>
						<path class="st1" d="M162.4,121.5c0,0-0.2,0.1-0.5,0.3C161.9,122,162,121.9,162.4,121.5z"/>
						<path class="st1" d="M154.5,131.2c-0.1,0.1-0.1,0.1-0.2,0.2L154.5,131.2z"/>
						<path class="st1" d="M175,45.1c0.2,0.5,0.3,0.9,0.5,1.2C175.4,45.9,175.2,45.5,175,45.1z"/>
						<path class="st1" d="M128.2,175.2c0,0.1-0.1,0.3-0.2,0.6C128.2,175.5,128.2,175.3,128.2,175.2z"/>
						<path class="st1" d="M171.7,104.5c-0.1,0.1-0.1,0.2-0.2,0.4l0.2-0.2L171.7,104.5z"/>
						<path class="st1" d="M175.4,99.1c-0.1,0.2,0,0.4-0.1,0.5c1-2.2,3-6,2.6-6.7c-0.2,0.4-0.7,1.5-1.3,2.4
							c-0.6,0.9-1.1,1.6-1.1,1.2c-0.3,0.8-0.8,1.6-1.3,2.4c-0.5,0.8-1,1.4-1.2,1.8c1.6-2.2,0.6,0-0.2,1.6c-1,1.3-0.2-0.5-1.1,0.6
							c-0.7,1.1-1.4,2.1-2.1,3.2c0.7-0.9,1.3-1.8,1.9-2.7l-0.1,1.1c0.1-0.1,0.1-0.2,0.1-0.3c1.4-2.4,1.6-2.5,1.9-2.5
							C173.9,101.7,174.2,101.7,175.4,99.1z"/>
						<path class="st1" d="M175.4,99.6c-0.1,0.3-0.3,0.6-0.3,0.9C175.3,100,175.3,99.8,175.4,99.6z"/>
						<path class="st1" d="M184.1,78c0-0.3,0.1-0.6,0.1-1C184.2,77.2,184.2,77.7,184.1,78z"/>
						<path class="st1" d="M84.2,157c0,0.2,2.3,2.5,2.5,2.1c-0.7-0.6-1.5-1.3-2.2-1.9L84.2,157z"/>
						<path class="st1" d="M163.8,22.2c0.3,0.2,0.5,0.5,0.8,0.7c0.1,0,0.1,0.1,0.2,0.1C164.7,22.8,164.1,22.4,163.8,22.2z"/>
						<path class="st1" d="M175.9,95.4c-0.2,0.6-0.2,0.8-0.3,1C175.8,96,175.9,95.7,175.9,95.4z"/>
						<path class="st1" d="M164.3,21.3c-0.3-0.4-0.7-1-0.7-1.2c-0.8-0.6-1.4-0.8-2.3-1.3C162.2,19.4,163.2,20.2,164.3,21.3z"/>
						<path class="st1" d="M161.2,18.8C161.2,18.8,161.3,18.9,161.2,18.8L161.2,18.8z"/>
						<path class="st1" d="M82.8,155.7c-0.2-0.2-0.5-0.3-0.7-0.5l0.4,0.2c-0.6-0.5-1.1-1-1.7-1.5c-0.2-0.1-0.5-0.3-0.8-0.5
							c0.1,0.1,0.2,0.1,0.3,0.1c-0.2-0.2-0.4-0.3-0.5-0.5c-1.7-0.8-5.4-3.2-6.6-3.6c-1.5-0.8-3.2-1.8-4.3-2.5c1,0.6,2.4,1.4,2.1,0.9
							c-1.9-1.5-2.5-2.8-6.5-4.3l2.2,1.2l-5.3-1.9c-1.5-1.3,2.7,0.9,3.5,1c-4-1.7-6.6-4.6-8.7-4.9c0-0.6,0-1.5-2.4-3
							c1.5,1.6-1.6-0.6-0.5,0.8c-1-0.3-2.6-1.9-2.9-1.7l0.3,0c-3.6-3.5-5.5-3.6-7.4-4.6c-4.6-3.7-6.4-5.8-9.9-9.1
							c0.1-0.4-0.2-1.9-1.6-3.3c-1-0.3-4.1-3.3-4.8-3.3c2.2,2.7,2.3,1.7,3.8,3.1c0.8,1.6-0.3,0.5,1.1,2.4c-1.2-1.5-6.2-5.9-7.2-8
							c0.2,0.2,0.3,0.4,0.5,0.5c-0.9-1.4-1.2-2.5-1.7-3.7c-0.3-0.6-0.6-1.2-1-2c-0.2-0.4-0.5-0.8-0.8-1.2c-0.3-0.5-0.7-1-1.1-1.5
							c-0.6-0.7-1-1.5-1.6-2.2c0.1,0.1,0.2,0.1,0.3,0.1c-1-2-1.1-2.8-1.3-3.6c-0.2-0.8-0.6-1.6-1.6-3.8c0.2,0.3,0.1,0.1,0.3,0.4
							c-0.3-1.3-0.8-2.6-1.3-3.8c-0.5-1.2-1-2.3-1.3-3.3c0.2-1.3,0.5,0.2,1,0.9c-1-4.6-2.3-9.7-2.9-12.7c0.1-1,0.2-2.1,0.3-3.1
							c0.1,0.9,0.3,2,0.4,2.7c0.2,0.7,0.4,1.1,0.6,0.8c-0.2-1.7-0.3-1.4-0.2-3.8c0.3,0.4,0.6,1.4,0.9,2.5c0.3-2.4,0-2.7-0.2-2.8
							c-0.2-0.1-0.4,0,0.2-1.7c0.1-1.5-0.2-2.5-0.5-2.7c0.3-0.9,0.6-1.8,0.9-2.7c-0.2-0.2-0.1-1.1,0.1-2.3c0.2-1.2,0.5-2.6,0.9-3.7
							c-0.1-0.2-0.3,0.2-0.6,0.8c-0.2,0.6-0.5,1.3-0.5,1.7c-0.2-0.1-0.1-0.8,0-1.6c0.2-0.8,0.5-1.8,0.7-2.6c0.6-0.1,1.5-2.5,2.5-4.6
							c0.5-1,1.1-1.9,1.5-2.5c0.4-0.5,0.7-0.7,0.7-0.1c1.7-3.1,4.5-6.4,7.5-9c3-2.6,6.3-4.4,8.3-5.6c0.8-0.2,1.9-0.6,2.6-0.8
							c0.7-0.2,1.1-0.1,0.3,0.4c1.3-0.5,2.5-1,3.6-1.3c1.1-0.4,2.1-0.8,3.1-1.1c1-0.3,2.1-0.7,3.2-0.9c0.6-0.1,1.2-0.2,1.8-0.3
							c0.6-0.1,1.3-0.1,2-0.2c0.5,0.1-2.6,0.2-2.3,0.6c1.8-0.4,3.5-0.5,5.4-0.4c1,0,2,0.1,3.1,0.1c1.1,0,2.4,0.1,3.8,0.2
							c-1-0.1-1.3,0.1-1.4,0.2c-0.1-0.2,2.4-0.2,3.8-0.1c0.8,0.2-1.1,0-0.7,0.2c5.4,1,10.2,2.1,14.6,4.3c4.4,2.2,8.4,5.2,12.1,9.5
							c-2.1-2.4-3.5-2.8-3.6-2.6c0.7,0.7,1.4,1.5,2.1,2.2c0.5,0.3,1.2,0.9,1.8,1.7c0.3,0.4,0.7,0.7,1,1.1c0.3,0.4,0.7,0.8,1,1.2
							c0,0.3,0.5,1.1-0.2,0.4c1.4,2.7,2.7,4.7,4,7c0.3,0.6,0.6,1.2,0.8,1.9c0.3,0.6,0.5,1.4,0.7,2.1c0.3,0.7,0.3,1.6,0.4,2.4
							c0.1,0.9,0,1.8-0.1,2.8c-0.1-3.3-1.2-6.3-2.6-9l0.2,2.2l-0.9-1.8c-0.3-0.6-0.7-1.1-1-1.7c0.1,0.6,0.3,1.1,0.5,1.5
							c0.2,0.5,0.4,0.9,0.5,1.3c0.4,0.7,0.6,1.3,0.3,1.5c-0.2-0.4-0.5-1.5-0.8-1.5c0.3,1,0.4,1.6,0.6,2.1c0.2,0.5,0.4,0.9,0.5,1.7
							c-0.7-2.1-1.8-4.9-3.4-7.7c-1.5-2.7-3.5-5.3-5-6.9C87,48.2,88.2,49,88.3,49c-0.6-0.7-1-1.3-1.5-1.9c-0.5-0.6-1.1-1.3-2-2
							c-0.7-0.3-0.5-0.1-0.1,0.3c0.4,0.4,1,1.1,1.4,1.5c-0.4,0.1-0.8-0.3-1.7-1.1c0.1-0.2-1.1-1.5-2.6-2.7c-0.7-0.6-1.5-1.2-2.1-1.8
							c-0.7-0.5-1.2-1-1.5-1.3c-1.5-0.8-2.2-1.1-2.5-1.1c-0.3,0-0.3,0.2-0.2,0.3c0.1,0.4,0.3,0.7-2.5-0.7l-1.6-1.2
							c-3.7-0.8-8.6-1.2-12.8-1.4l0.9,0c0.6-0.2-0.4-0.4-0.8-0.5c-3.3-0.4-6.2,0.6-8.2,0.3c-0.9,0.3-2,0.6-3.1,0.9
							c-1.1,0.4-2.3,0.7-3.5,1.2L42,38.5c-0.6,0.3-1.1,0.5-1.7,0.7c-1.1,0.5-2.1,1-3,1.5c-0.7-0.1,0.5-0.8,2.1-1.6
							c0.8-0.3,1.7-0.7,2.5-1c0.8-0.3,1.5-0.6,1.9-0.8l-1.9,0.5L40,38.5c2.2-0.8,3.1-1.3,4.4-2.1c-1.7,0.4-2.8,0.8-3.7,1.3
							c-0.5,0.3-1,0.5-1.5,0.8c-0.5,0.3-1.1,0.6-1.8,1c0.2-0.3-0.3-0.3-1.6,0.4l-0.2,0.6c0,0-0.2,0-0.6,0.2c-0.8,0.4-1.6,1-2.4,1.5
							c-0.8,0.5-1.5,1.1-2.2,1.7c0.5-0.3,0.9-0.3,1.2-0.4c0.3-0.1,0.7-0.2,1.3-0.6c-0.6,0,0.4-0.7,1.6-1.4c-1,0.8,1.4-0.4,1.5-0.1
							c-1.3,0.6-2.6,1.4-3.8,2.2c-0.6,0.4-1.1,0.9-1.6,1.2c-0.5,0.4-0.9,0.8-1.2,1.1l-0.8,0c-2.1,1.7-3.7,4.1-4.9,5.5l0.2-0.6
							c-2,2.6-3.3,5.5-4.7,8.1c-0.6,2.9-1,6.6-0.8,9c0.1,0.3,0,1-0.1,1.9c-0.1,0.9-0.3,2-0.4,3.2c-0.2,2.4-0.3,5.1,0.3,6.7
							c0,0.1-0.2-0.4-0.4-1.2c-0.2-0.7-0.4-1.6-0.5-2.2c0,2.2,0.9,3.9,0.4,4.7c-0.3-5-0.5,0.3-0.8-1.9c0.2,2.4,0.7,4.8,1.1,5.9
							c-0.7-3.7,1,1.2,0.2-2.5c0.9,2.9,2,6.7,2.9,10.1c-0.3,0.1-0.2,0.5,0.1,1.8c0.2,0.3,0.5,0.6,0.7,0.8c0.3,0.8-0.1,0.1-0.5-0.4
							c-0.3-0.5-0.6-0.8,0,0.8c0.9,1.5,1.9,3.8,3,5.9c1.1,2,2.3,3.8,3.2,4c0.5,1.2-0.3,0.3-1-0.5c-0.7-0.8-1.3-1.5-0.5,0.3
							c-1.7-1.6-2.7-4.7-3.6-5.1c1.2,1.9-0.1,1,0.6,2.3c0.5,0.7,1,1.4,1.6,2c-0.1-0.2-0.2-0.3-0.3-0.5c1.4,1.7,2.9,3.9,4.8,6
							c0.9,1,2,2.2,3,3.3c1,1.1,2.1,2.2,3.1,3.1c3.8,2.9,6.8,4.5,11,8.2c-1.5-0.8,3.4,3.3,0.2,1.5c1.8,1.9,4.1,3.2,4.3,3
							c-1.7-1.4-0.6-0.5-2-1.8c1.2,0.6,3.5,2.4,4.4,3.2c-0.4-0.3-0.3-0.2-0.5-0.2c2.1,1.7,1.2,0.5,2.9,1.4c0.3,0.7,3.6,2.4,5.1,3.5
							l2.6,0.8c-1.5-0.4,2.2,1.4,2.4,1.9c1.8,0.7,3.5,1,6.1,2.7c-1.2-0.5,2.2,1.7,2,2.1c1.1,0.8,2.1,1.5,3.1,2c1,0.6,2,1.2,2.9,1.7
							c1.8,1,3.6,2.1,5.3,3.8c-0.2,0-1.1-0.4-0.1,0.6c0.9,0.6,2.4,1.9,3.4,2.6l0,0c0,0,0,0,0.1,0c0.5,0.3,0.8,0.5,0.9,0.5
							c1.8,1,2.9,1.3,6.2,3.6c0.1-0.6-2.6-2.6-3.9-3.4l-1.3-0.4c-0.5-1.3-2.9-2.2-3.5-3c2.4,0.8,7.7,5.4,11.2,7.7
							c-1.5-2.2-5.7-5.8-9.5-8.8l1.5,1.6l-2-1.6l1.6,1.9c-1.8-1.6-3.5-2.8-5.2-4.1c2,1.6,2.4,2.7,1.3,1.7c-1.9-2.1-2.5-1.6-4.2-2.9
							c0.9,0.8,2.2,1.7,1.2,1.3c-1.5-1.5-2.5-2.4-3.6-3.2c-1.1-0.9-2.2-1.7-3.7-3.1c0,0.5-1.1-0.2-2.3-0.9c-1.2-0.7-2.5-1.5-2.9-1.4
							l1.5,1c-1.2-0.5-2.4-1-3.6-1.5c-2.7-2.3,3,0.9-1.4-2.1c-4.2-2.5-4.5-1.6-7.7-3.4c1.3,0.2,4,1.3,6.7,2.8l-1.5-1.1
							c1,0.2,4.7,2.4,6.6,3.5c-3.4-1.3,1.4,1,2.6,2.3c0.5-0.2-1.6-1.4,1-0.3c-2.3-1.4-2.6-1.6-5.4-3.3c3,1.8,4.6,2.4,6.1,2.9
							c1.5,0.5,2.9,1,5.6,3.1c-2.6-1.6,0.5,1.2,0.5,1.5c1.1,0.8,3.3,2.3,4.3,2.9l-0.4-1.1c3,2,3.1,3.9,6.7,5.9c0.7,0-2.7-2.4-2.1-2
							c4.6,3.2,5.5,5.4,9,8.9c0.3,0,0.6-0.3,2.1,0.5c-0.7,0,0.2,0.9-1.5-0.1c1.1,1.2,2.8,2.3,4,3.1c-2.4-2.4,1.4,0.5,2.1,0.7
							c1.3,1.2-0.7-0.1-1.6-0.7c1,1,1.9,2.6,2.9,2.7c-0.2,0.4-3.7-1.8-5.8-3.4l1.3,1.2c-1.1-0.6-1.2-0.8-2.5-2
							c1.1,1.4,0.7,1.5,0.2,1.5c-0.1-0.2,0.2,0,0-0.2c-1-1-1.9-1.6-1.8-1.2c-1.3-0.4,1.3,1.6,1.8,2.4c0.6,0.4,1.2,0.9,1.7,1.3
							l6.8,3.5c1.3,1,2.1,1.8,2.8,2.5c0.4,0.4,0.7,0.8,1,1.2c0.2,0.2,0.3,0.4,0.5,0.6c0.1,0.1,0.2,0.2,0.3,0.3
							c0.1,0.1,0.1,0.1,0.1,0.2c0.2-0.1,0.3-0.2,0.4-0.3c0.2,0.2,0.5,0.5,0.6,0.8c0.1,0.3,0.2,0.6-0.1,0.7c0-0.2-0.1-0.2-0.2-0.4
							c0,0.1-0.1,0.1-0.2,0.1c0,0,0,0-0.1,0.1c0.8,0.5,1.3,0.8,1.3,0.8c-0.6-0.1-0.7,0.1-0.6,0.6c0.1,0.4,0.5,1.1,0.3,1.5l0.7,0.5
							l0.3,0.2l0.2,0.1c0,0,0.1,0.1,0.1,0l0-0.1l0.3-0.8c-0.4,0.5-0.4,0.3-0.3,0c0.1-0.3,0.3-0.8,0.3-1.1c0.1,0.3,0.4-0.2,0.6-0.7
							c0.2-0.5,0.5-1.1,0.7-1.4l0,0.1c0.1-0.1,0.1-0.1,0.2-0.2l0.1-0.1c0.1-0.1,0.1-0.2,0.2-0.3c0.3-0.5,0.6-1,1-1.5
							c0.7-1,1.4-2.1,1.9-3c-0.2,0,0.7-2.7,1.1-4c-2.3,2.8-1.2,1-1.6,1c0.2-0.3,0.6-0.8,0.6-0.9c0.2-0.5-0.6,0.4-0.8,0.4
							c-1,1.6-2.1,3.3-3,4.8c-0.4,0.7-0.8,1.4-1.1,2.1c-0.2,0.4-0.1,0.3-0.1,0.4c0,0.1,0.1,0.2,0.1,0.3c0.1,0,0.2-0.1,0.2-0.1
							c0,0,0-0.1,0-0.1c0-0.1,0.1-0.2,0.1-0.3c0.2-0.5,0.4-1,0.9-1.5c-0.2,0.5-0.4,1-0.6,1.5c-0.1,0.1-0.1,0.2-0.2,0.4l-0.1,0.1
							c0,0,0,0,0,0l0,0c0,0.1-0.1,0.2-0.1,0.2c-0.2,0.3-0.4,0.7-0.6,1.1c-0.1-0.1-0.2-0.1-0.3-0.2l-0.3,1l0,0c0,0,0,0,0-0.1
							c0.1-0.6-0.1-1.1,0.1-1.7c-0.2-0.3-0.2,0.2-0.3,0.6c0,0.1-0.1,0-0.1,0c0,0-0.1-0.1-0.1-0.1c0,0.2-0.1,0.4-0.1,0.6
							c0-0.2-0.2-0.5-0.2-0.7c-0.1-0.2-0.1-0.4,0.1-0.5c0.1,0,0.3,0,0.3-0.2l0-0.3c-0.1-0.1-0.1-0.3-0.2-0.4l0.1-0.3
							c0,0.1,0.1,0.2,0.1,0.4c0-0.4,0.2-0.2,0.4-0.1c0.1,0.1,0.2,0.1,0.3,0.1c0,0,0,0,0,0c0.1-0.2,0.2-0.4,0.4-0.6
							c0.3-0.5,0.6-1.1,1.1-1.9c0.7-2.2,2-4.2,4.7-7.5c-1.7,2.6,0.2,0.5-0.2,1.7c2.1-2.3,2.3-3.5,3-4.9c0.7-0.4,1.3-0.7-0.4,1.5
							c0.4,0.7,2.1-2.9,2.8-2.7c2.7-3.6,3.2-5.3,4-7.2c0.7-1.8,1.7-3.7,4.5-7.6l0.1,0.5c0.4-0.7,0.7-1.3,1-1.9
							c0.4-0.7,0.7-1.3,1.1-2c0.7-1.3,1.4-2.4,2.1-3.6c1.4-2.3,2.8-4.5,4.5-7.2c1.1-1.3,2.3-2.5,3.5-3.7c-0.5,1-1.7,3.8-0.7,2.8
							c-2,1.6-3.2,3.9-5,5.9c0,0.3,0.7-0.5,1.1-0.8c-0.9,1.3-1.6,1.8-2.6,3.7c0.2,0,1.6-1.9,0.7-0.3c-0.6,0.7-1.3,1.5-1.9,2.2
							c-0.9,1.7-0.8,2.3-0.9,2.9c0,0.3-0.1,0.6-0.3,1.1c-0.2,0.4-0.5,1-1.1,1.9c0-0.9,0.2-2.4,1-4.1c-1.1,1.8,1.1-2.5,0-1
							c-0.5,1.4-1,2.5-1.5,3.4c-0.5,0.9-1.2,2-2,3.6c0.1-0.4,0.1-0.6,0.5-1.3c-1,1.4-2,2.8-3.1,4.2c1.1-0.9-2.2,3.8-1.5,3.7
							c1.8-2.2,2.3-3.1,2.9-4c0.6-0.9,1.3-1.9,3.1-4.5c-0.4,0.8-0.8,1.7-1.1,2.7c-0.3,0.9-0.6,1.8-0.7,2.4c0,0-0.1,0.1-0.2,0.3
							c-0.1,1.1,0.6,0.4,1.4,0.9c1.1-2.8,2.6-4.2,4-7.4c-0.1-0.8-1.6,1.4-2.4,2.9c0.5-0.9,0.8-1.9,1.3-2.8l-0.1,0.6l2.1-3.5
							c0.7-1.2,1.4-2.4,2.2-3.5c-0.8,1.3-0.8,2-1,2.8c0.6-0.9,1.2-1.7,1.9-2.6c-0.5-0.1-0.8-0.4-0.2-1.3c2.9-4.5,5-6.6,6.5-7.9
							c0.1-0.2,0.2-0.4,0.3-0.5c-0.9,0.4,1.4-3.6,1.9-5.2c0.4,0.4,1.8-2,3-3.1c0-1-1.3-0.6-2.8,0.6c-1.6,3.2-0.7,2-1.1,3.8
							c-1,1.7-1.9,3.3-2.8,5l0.3-1.3c-1.8,2.2-2.8,4.9-3.2,4.4c0.5-1.5,2.1-3.5,2.6-4.9l-1.3,1.4c1.4-3.1,1.4-1.1,3.4-4.7
							c-1.3,0.9,0.2-0.3,0.9-1.9c-1.1,0.9-4,5.9-4,4.4c0.9-2,4.9-5.2,5.9-8l0,0.2c2.5-3.2,3-4.7,3.6-6.1c1.3-1.2,2.4-3.4,3.5-4.9
							l0.2,0.2l1.5-2.2c-0.4,1.3-1.9,2.4-3.2,4.3l0.6,0.1c-2,1.7-2.4,3.7-3.3,5.6c1.4-2.6,5.1-6.6,4.8-7.7l1.5-1.2l0.4-0.8
							c1.1-0.9,0.7,0.6-0.8,2.8c-0.4,0.3-0.6,0.4-0.6,0.3c-0.6,1.1-0.9,2.2-2.8,4.5l0.7-1.4c-2.3,2.9-4.1,5.8-4.5,7.1
							c3.3-4.2,6.5-8.3,9.6-12.3c0-0.9,0.2-1.9,0.2-2.6c0-0.8,0-1.5-0.2-2c1.6-2.5,3.4-6.1,4.8-8.3l0.1,0.3c0.7-1.1,1.1-2.2,1.4-3.2
							c0.8-1.1,0.1,1.1,0.6,0.3c0.5-1.4,0.9-2.8,1.3-4.2c0.4,0.4-0.9,3.9-1.7,5.5c0.1-0.3,0.3-1,0.1-0.8c-0.5,0.9-1,2.3-1.5,3.5
							c-0.5,1.2-1,2.3-1.6,2.5c-0.4,0.9,0.5-2-1.1,0.9c-1.3,1.7-1.2,2.6-1.2,2.9c0.2,0.2,2.2-2.7,1.8-1.5c0.5-0.7,0.7-1.3,0.9-1.9
							c0.3-0.6,0.6-1.3,1.2-2.2c-0.7,1.6-1.5,3.9-2.3,4.5c-1.4,3.1-0.2,3.4,0.8,2.1c-0.3,0.1,0.5-1.4,0.9-2.3c0.4-1,0.6-1.5-0.8,0.3
							c0.6-2,2.4-5.3,3.2-7.9l0,0.2c0.4-1,0.8-2.1,1.2-3.1c0,0.5-0.3,1.5-0.1,1.6c0.4-1.5,0.7-3.1,1-4.6c-0.2,1.3,0,1,0.3,0.1
							c0.3-0.8,0.8-2.1,1-2.6c-0.2-0.6,0-2.4-0.7-0.8c-0.8,1.8-0.1,1.1-0.6,2.8c0-0.9,0.1-1.7,0.1-2.6l0.1-0.2l-0.1-1.6
							c0.9-3.3,0.8,1.7,1.4-2.6l-0.8,0.4c0.6-2.4,1.4-5.2,1.9-7.8c0.5-2.6,0.8-5.1,0.7-6.8c0.4,1,1,1.4,1.4,0.1
							c-0.2,1.5-0.3,4.6-0.6,6.8c-0.1,0.2-0.2-0.5-0.3-1.6c-0.1-1.1-0.1-2.4,0-3.6c-0.6,0.5-0.5,2-0.5,3.4c0,1.4,0,2.7-0.6,2.8
							c-0.3,1.5-0.5,2.5-0.6,3.3c-0.1,0.8,0,1.3,0,1.9c0,1.1,0,2-1,4.4c0.5,0.2-0.2,1.5,0.2,1.9c0.6-0.6,1.1-2.3,1.5-4.3
							c0.4-2,0.7-4.2,1.1-5.8c0,0.3,0,1,0,1.2c0.6-2.4,0.6-3.4,0.6-5.1l-0.1,0.2c-0.3-3,0.6-1.8,0.9-3.5c0-0.3,0-1.1,0-1.8
							c0-0.6-0.1-1.2-0.3-1c0.2-1.1,0.3-2.1,0.5-3.2l-0.6,0.2c-0.1-1.8,0.3-2.2-0.2-3.7l-0.5,0c0.1,1.4,0.1,2.9,0.1,4.3
							c-0.2-2.2-0.5-0.6-0.8-3c0.8,2.6,0.2-1.9,0.6-2.2c-0.1-0.6-0.3-1.1-0.5-1.7l0.2,0.4c0.1-1.4-0.4-1.6-0.7-3.2
							c0,0.9,0,1.7,0.1,2.6c0.1,0.8,0.2,1.7,0.5,2.9c-0.4-1.7-1.3-5-1.5-5.8c-0.3-0.8-0.5-1.6-0.6-2.3c-0.1-0.7-0.2-1.5-0.5-2.2
							c0.6,1.5,0.9,1.1,1.2,1.1c0.3,0,0.8,0.4,1.3,3.7c-0.1-0.1-0.2-0.6-0.2-0.8c-0.2,0.5,0,1.5,0.3,2.5c0.3,1,0.7,2.1,0.9,2.9
							c0.3-0.4,0.6,1.1,0.5-1.5c-0.1,0.9-1.1-2.1-1.4-4.5l0.9,0.2c-0.3-1.2-0.5-2.4-0.9-3.5l0.1,0.3c0.1-1.5-1.3-3.6-2.1-6
							c-0.5-0.7-1.5-2.6-2.5-3.8c-0.9-1.3-1.7-1.9-1.1-0.5c-0.8-2-2.7-3.2-4.4-4.9c0.6,0.8,1.2,1.7,1.8,2.5
							c-2.8-2.3-1.9-1.8-4.6-3.2c0-0.4-0.4-0.9,0.2-0.7c-1.7-1.7-3.9-3.7-6-5.3c-2.1-1.6-4.2-2.8-5.6-3.2c-0.7-0.4-1.2-0.8-1.7-1.2
							c-0.5-0.4-0.9-0.7-1.3-1c-0.5-0.3-1-0.7-1.6-1c-0.7-0.4-1.5-0.7-2.6-1c-0.9-0.2,0.4,0.9-2.3-0.2c-0.2-0.1,2.9,0.3-0.3-0.6
							c-0.6,0-1.2-0.1-1.9-0.3c-0.7-0.2-1.3-0.3-2-0.5c-0.7-0.2-1.4-0.3-2.2-0.4c-0.7,0-1.5-0.1-2.2,0.1c-1.6-0.3-4.2,0.2-3.8-0.4
							c1.2-0.1,2.8-0.2,4-0.3c1.3,0,2.3,0,2.6-0.1c-0.4,0.3,1.8,0.5-0.1,0.5c0.9,0.2,1.6,0.3,2,0.4c0.5,0.1,0.8,0.1,1.1,0.1
							c0.6,0.1,1.1,0,2.8,0.6c0.3-0.1-1.6-1-2.4-1c0-0.2,0.5-0.2,1.1-0.1c0.6,0.1,1.4,0.3,2.1,0.4c1.3,0.3,2.3,0.5,0.9-0.4
							c-1.9-0.7-3.2-0.6-4.4-0.6c-0.6,0-1.2,0-1.8,0c-0.6,0-1.3-0.2-2.1-0.4c1.4-0.3,3.3,0.3,5.2,0l-1.3-0.4l-1.4-0.4
							c-0.7,0-1.4,0.2-2,0.3l0.1-0.1c-2.4-0.5-3.6-0.2-4.6,0.1c-1,0.4-1.9,0.9-3.9,1.5c2.4,0-0.3,1.3,1.5,1.2
							c-2.5,0.5-4.3,1.2-4.6,0.6c1.1-0.6,1.7-0.8,2-1c0.3-0.2,0.3-0.3,0.3-0.4c0-0.2-0.1-0.4,2.2-1.2c-0.4-0.1-0.2-0.4-0.2-0.6
							c0-0.2-0.3-0.4-1.8-0.1c-3.1,1.4,1.1,0.3-2,1.4c-0.2,0-0.4,0-0.3-0.1c-0.7,0.4-1.1,0.6-1.6,0.7c-0.5,0.2-1,0.4-1.7,0.9
							l0.3-0.3c-2.3,0.6-2,1.6-3.9,2.2c0.9,0-0.9,1.1-1.6,2.1c0.9-0.5,1.6-0.8,2.5-1.2c0.5-0.2,1-0.4,1.6-0.7c0.6-0.2,1.3-0.6,2.1-1
							c0.2-0.5-0.1-0.7,1.3-1.4c-0.8,0.3-1.5,0.7-2.2,1.1c0.4-0.3,0.8-0.5,1.2-0.8c0.8-0.3,1.5-0.5,2.3-0.7c-1.4,0.7-1.7,1-1.8,1.2
							c-0.1,0.3,0,0.4-0.5,0.9c-2.5,1-1.9,1.1-3.4,1.9c-0.1-0.3-1.3,0.2-2.9,1.1c-1.5,0.9-3.4,2.3-4.7,3.4c0.4-0.4,0.9-0.9,1.2-1.1
							c1.6-2-1.6,0.8-1.8,0.8c-0.4,0.5-0.7,1-1.1,1.5c0.2-0.3,0.4-0.7-0.2-0.2c-1.6,1.9-1.1,2.2-2.6,4.2c-0.4-0.1,0.6-2-0.5-0.9
							c-0.5,0.2-2.3,1.1-4,4c0,0.3-0.5,1-1,1.9c0.1-0.1,0.1-0.3,0.2-0.3c-0.5,0.6-1,1.1-1.5,1.7c0.5-1.9,2.3-3.1,3-5l-0.3-0.4
							c0.9-1.2,2-3,2.4-3.9c-1.5,1.7-1.8,2.2-3.2,4.4c-0.5,0.1,0.4-1.5,0.5-1.8l0,0.5c2.2-2.2,2.5-4,5.2-6.8c0.4-0.4,0.2-0.1,0.2,0
							c1.8-2.7,4.6-4.2,6.6-6.5l-0.6,0.8c0.4-0.4,0.9-0.8,1.4-1.3c0.6-0.5,1.2-1,1.9-1.6c1.5-1.1,3.2-2.3,5.1-3.2l0-0.2
							c-0.5,0,1-0.5,1.9-0.6l0,0c2-0.9,4-1.4,5.7-1.8c-0.6-0.1-1.3-0.1-2.1,0C130.1,8.7,129,9,128,9.2c-1,0.3-1.8,0.6-1.4,0.8
							c-0.9,0.1-2,0.6-3.1,1c-1,0.5-2,1-2.6,1.2c2.3-0.8-1.3,1.2-1.4,1.7c-0.4,0.1-1.2,0.5-1.8,0.9c-0.6,0.4-1.1,0.8-1.1,0.5
							c-0.4,0.2,1.1-0.5,1.8-1.2c1-0.8-0.1-0.3-1,0.2c-0.9,0.5-1.8,1.1-0.6,0c-0.8,0.7-1.6,1.3-2.5,2.1c-0.9,0.7-1.7,1.5-2.5,2.3
							c-1.7,1.6-3.2,3.4-4.4,5c0.6-0.5,1.1-1,1.7-1.5c-1.3,1.2-3.9,4.6-4.3,4.7c0.8-1.1,1.8-2.3,2.9-3.6c-0.4-0.4-2.7,3.1-3,3.1
							c-0.8,1.5-1.6,3-2.3,4.5c0.4-0.6,0.8-1.2,1.3-1.7c-0.6,1.3-3.5,4.7-5.1,7.7c0.3-2.1,2.5-4.4,4.4-7.4c1.3-2.2-1.5,0.9-0.2-1.2
							c-0.5,0.4-1.4,1.7-1.7,2.5l-0.7,0.7c0.3-1.1,1.3-2.6,2.3-4.3c1.1-1.6,2.3-3.3,3.2-4.7c-0.1,0.3-0.2,0.5-0.3,0.6
							c1.9-1.8,3.6-3.7,5.4-5.5c-1.1,0.8-1.4,1.2-1.9,1.8c-0.2-0.1,1.5-1.8,2-2.5c-1.9,1.5-0.6,0-1.8,1c1-1.2,1.9-2,3.5-3.2
							c0.9-0.4-0.4,0.8-0.1,0.9c1.4-1.4,2.6-1.4,4.8-3.2c-3.3,2,0.4-1.2,1.6-2l-0.6,0.3c0.9-0.9,1.9-1.5,2.8-1.5
							c-0.7,0.4-1.4,0.8-1.9,1.1c-0.5,0.3-0.7,0.5-0.4,0.5c0.5-0.3,0.9-0.5,1.4-0.8c0.5-0.3,1-0.5,1.5-0.8l-0.9,0.7
							c1.6-0.8,3.2-1.5,4.9-2c0.4-0.3,0.8-0.7,1.3-1c0.5-0.3,1-0.7,1.3-1c1.4,0,3.1-0.5,4.4-0.7l-0.6,0.2c1.2,0,3.2-0.1,4.9,0
							c1.7,0,3.2,0.1,3.4-0.1c0.8,0.2-2.2,0.3-4,0.7c-0.9,0.2-1.4,0.4-1,0.5c0.2,0.1,0.7,0.1,1.4,0.1c0.4,0,0.8,0,1.4,0.1
							c0.5,0,1.2,0.1,1.9,0.2c2.2,0.3,2.9,0.2,3.4,0.1c0.5-0.2,0.8-0.5,2.1-0.3c0,0-0.2,0.1,0.1,0.2c1.9,0.6,2.2,0.3,3.8,0.7
							c-0.5-0.3-1.2-0.5-1.8-0.7c-0.6-0.2-1.2-0.3-1.5-0.3c0.7-0.3,4,1.2,5.4,1.5c-1-0.1-0.2,0.3,0.8,0.7c0.9,0.4,1.9,0.8,1.1,0.7
							c3.4,1.9,7,3.7,8.9,4.4c1.7,2.1,3.8,2.5,6.7,5.5c-0.5-0.4-1.4-1.1-2.1-1.7c-1.1-0.6-0.3,0.2,0.4,0.8c0.7,0.6,1.2,1.2-0.3,0.2
							c0.7,0.4,0.2-0.2-0.5-0.6c-1.1-0.8-2.3-1.4-2.2-1.1c0.8,0.8,1.6,1.6,2.3,2.4l-1-0.6c1.2,1.2,2.3,2.4,3.4,3.7
							c0.2,0-0.1-0.4-0.2-0.6c2.1,2,4.2,4.2,6.2,6.5c0.5,0.6,1,1.1,1.5,1.7c0.5,0.6,1,1.2,1.4,1.8c0.9,1.2,1.7,2.4,2.3,3.6
							c0.9,0.1,2.6,2.9,4,6.3c1.4,3.4,2.3,7.4,3,9.4c-0.6-1.1-1.4-1.5-1.6-0.8c-0.1-0.5-0.4-1.1-0.7-1.9c-0.3-0.8-0.7-1.7-0.9-2.8
							c0.1-0.4-0.4-3,0.3-1.4c-2.1-5.5-0.3,0.9-1.4-0.5c2,6,3.3,9.7,3.9,13.7l-0.2,0.1c0.2,1,0.3,2,0.4,3c0-2.5,0.8-2.4,0.6,0.8
							l0-0.4c-0.3,1.9,0,5.7-0.4,8.6c0.1,0.7,0.2,1.3,0.2,2c-0.4,2.9-1.3,2.8-2,3.7c-0.8,4.4-0.8,7-1.3,10.2
							c-0.4,0.6-1.1,2.6-1.7,3.8c-0.6,1.3-1,2-0.6,0.2c-0.5,1.9-0.3,2.9-0.4,4.2c-0.1,1.2-0.5,2.8-2.5,5.7c0.2-0.6,0.3-1.2,0.5-1.8
							c-1.4,3-3.2,6.7-5.2,9.8c-0.5,0.8-1,1.5-1.5,2.2c-0.5,0.7-0.9,1.2-1.3,1.8c-0.8,1.1-1.5,1.9-2,2.5c0.4-2.6-5.8,5.5-7.5,5.6
							c0.4-0.1-0.9,1.9-1,2.2c-0.4,0.3-1,0.9-1.4,1.8c1.6-1.8,0,2.2,2.4-1.9c-0.7,2.4-2,5.2-4.9,9.4l-0.4-0.4l2.5-3.2
							c-0.6,0.1,0.7-1.6,1-2.4c-4.6,6-0.5-1.5-4.9,4.8c-0.1,0.8,0,0.3-1,2.1c0.5-0.8,0.3-1.1-0.5,0.1l-0.5,1.4c-2.2,1.8,2-4,0.2-2.5
							c1.3-2.7,4.2-7.1,3.1-6.7c-3.1,3.9-1.5,4.3-4.7,8.4l-0.5,0.3c-0.8,1.6-0.6,2.1-0.9,3.1c-0.2,0-0.5,0.3-1.2,1.3
							c-1,2.9-2,4.7-2.7,7.5c1.6-3.3,2.6-4.6,3.5-5.9c1-1.3,2-2.6,3.9-5.9c-0.5,1.1-3.3,5.7-2.8,6.4l-0.4-0.3
							c-1.1,2.3-2.1,4.5-3.8,7.1l0.7-1.8c-0.4,0.9-0.9,1.7-1.4,2.5c-0.5,0.8-1,1.5-1.5,2.2c-1,1.4-1.9,2.7-2.5,4.4
							c0.7-1,1.3-1.8,1.6-2.5c-1,2.1-2.7,4.3-4.1,6.3c-0.7,1.5-1.5,3-2.3,4.5c-0.2-0.2-2.1,2.3-1.5,0.8c-2.5,2.6-2.8,4.4-3.9,6
							c-2.6,2.5,1.6-2.6,1.3-3.3c-3.2,3.8-6.1,8-7.1,10.5c0.6-0.7,1-1.1,1.1-1c-0.2,0-1.3,1.6-1.8,2.5l-0.1,0.8
							c-1,1.3-1.3,1.8-1.4,1.6c0-0.1,0.2-0.8,0.8-2c-0.8,1.2-1.4,2.6-2.1,4.1c-0.7,1.4-1.4,3-2.3,4c0.5-1.2,1.1-2.5,1.7-3.6
							c0.6-1.1,1.2-2.2,1.9-3.3c0.1-0.3,0.3-0.5,0.5-0.8c0.1-0.2,0.3-0.4,0.4-0.7c0.2-0.3,0.4-0.6,0.5-0.8c0.3-0.5,0.6-1,0.7-1.3
							c-0.4,0.6-0.7,1.1-1,1.5c-0.4,0.6-0.8,1.1-1.1,1.6c-0.8,1.2-1.5,2.2-2.1,3.2c-1.3,2-2.6,3.8-4.4,7.6l-0.2,0
							c-0.1-0.1-0.2-0.2-0.3-0.2c-0.2-0.2-0.4-0.3-0.6-0.5c-0.4-0.4-0.9-0.7-1.4-1.1c-0.1-0.3,1.3,0.5-0.3-0.9
							c-1.9-1.6-2.2-1.6-2.1-1.3c0,0.3,0.5,1-0.2,0.7c1.3,1,2.3,1.8,3.1,2.6c0.4,0.4,0.8,0.8,1.2,1.2c0.2,0.2,0.4,0.4,0.6,0.6
							c0.1,0.1,0.2,0.2,0.3,0.3l0.2,0.1c0.2-0.3,0.5-0.7,0.8-1l-0.5,1.5c0,0-0.1,0.1-0.2,0.2c-0.2-0.1-0.8-0.7-1.3-1.1
							c-0.5-0.5-1-1-1.3-1.3c-0.2,0.1-0.3,0.2-0.5,0.3c0.1-0.3-0.7-1.4-1.8-2.6c-1.1-1.2-2.5-2.5-3.8-3.5c2.4,2.7,1.8,2.1,2.4,3.6
							c-2-1.3-3.1-2.5-4.2-3.7c-0.5-0.6-1.1-1.2-1.8-1.8c-0.2-0.2-0.4-0.3-0.6-0.5c-0.1-0.1-0.3-0.2-0.4-0.3c-0.3-0.2-0.6-0.4-1-0.6
							c0.2,0,0.8,0.5,1.2,0.7c0.1,0.1,0.2,0.1,0.2,0.1c0.1,0,0.1,0,0.1,0c-0.1-0.1-0.2-0.3-0.7-0.8c-1.6-1.4-1.7-0.9-2.9-1.7
							c1.6,0.7,1.5,0.1,3.2,0.8c1.8,1.6,2.2,1.9,2.6,2.2c0.4,0.3,0.9,0.7,3,2.4l-3.3-3.5c3.5,3,2.7,1.6,3.1,1.7
							c-1.3-1.4-2.3-2.2-3-2.8c-0.4-0.3-0.6-0.5-0.8-0.6c-0.2-0.1-0.4-0.2-0.6-0.3c-0.8-0.3-1.4-0.5-2.6-1.7
							c-1.5-0.9,2.4,2.2,0.2,0.8c-2.4-2.2-0.8-0.2-3.7-2.5l0.6,0.2c-0.6-1-1.7-1.4-2.8-2.3c-1.2-0.8,0,2.4-4.4-1.4
							c0.3,0.1,0.5,0.1,0.5,0l7.2,0.5c-4.5-4-9.7-8.6-14.9-13.2c-0.7-1.7,4.3,2.6,4.2,2.1l2.3,2.2c-0.4,0.2-5.2-4.2-3.4-1.9
							c4.5,3.4,6.1,5.4,10.6,8.3c-0.7-1.7-5.4-4.5-7.6-7.2c1.1,1,2.1,1.7,3.1,2.4c-2.4-2.2-5-4.5-7.8-7l-0.8-0.4
							c1.9,1.7,3.2,2.8,3.3,3c-2.5-2.2-5-3.6-5.5-3.2l0.4,0.4l-1.1-0.6C84,156.7,83.4,156.2,82.8,155.7z M88.9,46.2
							c-0.2-0.1-0.3-0.2-0.5-0.2C88.6,46.1,88.6,45.9,88.9,46.2z M127,166c-1.4,1.8-2.7,3.5-4,5.3c-0.7,0.9-1.3,1.8-1.9,2.7
							c-0.3,0.4-0.6,0.8-0.8,1.2c-0.2,0.4-0.5,0.7-0.7,1.1c0.6-0.6,1.1-1.2,1.6-1.7c0.6-0.6,1.1-1.2,1.6-1.7c1-1,1.8-1.7,2.1-1.9
							c0.4-0.2,0.3,0.1-0.3,1.2c-0.3,0.5-0.7,1.2-1.3,2.1c-0.3,0.4-0.6,0.9-0.9,1.5c-0.4,0.6-0.8,1.3-1.2,2l-0.4,0.8
							c0.5-0.7,1.2-1.8,1.9-2.9c0.7-1.1,1.4-2.2,2.2-3.3c0.4-1,1.4-3.2,2.2-5.1c0.8-1.9,1.5-3.6,1.5-3.6c-0.7,0.4-1.1,1.5-2.1,2.6
							L127,166z M130.5,164.7c1.6-1.9,1.1-1.6,1.1-2.1c-0.5,0.7-1,1.4-1.5,2.1C130.4,164.6,130.5,164.5,130.5,164.7z M131.3,162.6
							c-0.2,0.2-0.3,0.4-0.4,0.5L131.3,162.6z M99.9,168.7c0.1,0.1,0.1,0.1,0.2,0.2c-0.4-0.4-0.9-0.8-1.3-1.2
							C98.9,167.8,99.2,168.1,99.9,168.7z M103.3,172.5l0.7,0c-0.4-0.4-0.8-0.8-1.2-1.2C102.8,171.6,102.8,171.9,103.3,172.5z
							 M116.1,185.7c0.2,0,0.4,0.1,0.7,0.3c0.1,0.1,0.3,0.2,0.4,0.3l0.2,0.1c0.1,0,0.1-0.1,0.2-0.2c0.6-1.7,1.3-3.4,1.2-4
							c0-0.4-0.4,0.2-0.8,0.9l-0.7,1.4l-0.1,0.1l0,0.1c0,0,0,0-0.1-0.1l-0.3-0.3l-0.6-0.5c0,0.1-0.2,0.1-0.4,0
							c0.8,0.8,1.5,1.6,1.2,1.9c-1.2-1.6-1.6-1.8-2.2-2c-0.5-0.2-1.2-0.3-2.4-1.6C111.5,181.9,115.3,185.3,116.1,185.7z M139.8,10.1
							c-0.1-0.1-0.3-0.2-0.7-0.4c0.7,0,1.4-0.1,2.1-0.1c3.6,0.7,6.1,2.4,9.3,2.9c1.3,0.8,1.9,1.5,2.4,2.1c-0.6-0.3-1.2-0.7-1.7-0.9
							c-2.2-0.6-3.5-1-4.4-1.3c-0.9-0.3-1.4-0.6-1.8-0.9c-0.4-0.3-0.8-0.6-1.5-0.8C142.8,10.4,141.7,10.2,139.8,10.1z M173.2,31.7
							c-0.3-0.2-0.4-0.3-0.4-0.3c3,2.5,5.3,5.4,6.8,8.2c1.6,2.8,2.5,5.4,3,7.5c0.1-0.5,0-1.7-0.3-3c-0.3-1.3-0.7-2.7-1-3.6
							c0.4,0.4,0.8,0.9,1.1,1.4l0,1.1c0.5,0.8,0.9,1.7,1.4,2.6c0-0.4-0.1-1.2-0.3-2.1c-0.3-0.9-0.5-1.8-0.7-2.6
							c-0.1,0-0.7-1.2-1.6-2.4c-0.8-1.2-1.8-2.5-2.3-3.1l0.9,1.8l0.7,1.9c-0.2-0.5-0.9-2-1.8-3.4c-0.9-1.5-2-2.9-2.8-3.7
							c-0.1,0.1,0.3,0.9,0.8,1.7c0.5,0.8,1.1,1.6,1.4,1.7c-0.1,0.5-2.4-2.9-1.3-0.5c-2-2.3-4.9-6.1-6.4-7.8l0.2-0.7
							c-1.6-1.9-1.7-0.6-3.6-2.9c2.7,2.4,0-0.9,2.2,1c-0.5-0.8,0.5-0.5-1.7-2.5c-1.2-0.5-1.7-1.1-2.2-1.7c-0.5-0.6-1-1.2-2.1-1.6
							c-1.1-1.1,1.7,0.6-0.7-1.3c-3.1-1.6-3.2-1.2-3.7-0.8c1.3,0.9,2.2,1.3,3,1.6c0.8,0.3,1.5,0.6,2.6,1.5c-1.6-0.8-3.2-1.5-4.9-2.2
							c0.7,0.6,1.3,1.1,1.8,1.4c-0.9-0.6-1.7-0.9-2.5-1.1c-0.4-0.1-0.8-0.3-1.2-0.4c2.5,1.5,4.5,3.1,4.7,3.6l-0.5,0
							c0.7,0.8,2.1,1.7,2.8,2c2,1.6,4.2,3.1,4.3,3.8l-0.9-0.5c1.2,1.1,1.8,1.7,2.5,2.4C171.2,29.4,171.9,30.1,173.2,31.7z
							 M154,125.5c2-1,4-2.2,9.3-9.5l-0.4,0.6c1.7-1.6,2.8-3.5,4.1-5.5c1.2-2,2.6-4.1,4.5-6.1c-1.2,2.5-1.2,2.3-2.2,5.3l1.5-2.5
							c0,1,1.5-1.5,2.7-3.4l-0.5,2c-0.5,0.5-1.2,1.4-1.8,2.2c-0.6,0.8-1.1,1.4-1,1.4c0.4-0.6-3.4,2.9-4.9,5.2c0.6,0.1,3.9-4.7,3-2.1
							c1.1-2,1.7-2,3-4c-1.1,2,0.2,0.9-0.6,2.4c0.8-1.1,1.5-2.1,2.3-3.3c0.2,0.1-3.2,4.8-0.8,2.7c0.2-0.4,0.5-0.8,0.9-1.3
							c0.4-0.5,0.8-1.1,1.2-1.7c0.8-1.1,1.3-2.1,1.1-2.3l0.2,0c1.7-2.6,0.1-1.5,2.3-4.7c-0.2-0.2-0.7,0.4-1.4,1.6
							c-0.5,1.1-0.3,1.4-1.5,3.5c-0.5,0.3-0.1-0.3,0.3-0.8c0.3-0.6,0.6-1.1-0.2-0.6c-0.3,0.3-1.2,1.6-1.9,2.7
							c-0.7,1-1.3,1.8-1.1,0.8c0.7-0.8,1.3-1.6,1.9-2.5c-0.4-0.3,0.8-2.2,0.4-2.4c0.8-1.7,2.2-2.9,2.6-4.8c0-0.9-1.1,0.1,0.5-2.6
							c0.9-0.9,2-3.1,2.9-5.3c0.9-2.3,1.6-4.6,1.9-5.9c0.1-0.8,0.2-1.6,0.3-2.3c-0.3,0.1-1.2,4.3-1.2,2.7c0.3-1.2,0.6-2.3,0.8-3.5
							l0.1,0.3c0.4-1.2,0.4-2.4,0.5-3.5c0.1,0.6-0.1,1.5-0.2,2.3c-0.1,0.7-0.1,1.3,0.2,1.1c0.5-1.6,0.8-1.9,1-3.4c0,0.3,0,0.6,0,0.6
							c0.9-3.4,0-3.4,0-4.3c-0.1-1.8-0.4-0.9-0.7,0.3c-0.4,1.2-0.8,2.8-1,2.5c0.6-3.3,0.9-6.6,1.1-9.9c0.1,0.9,0.2,1.7,0.5,1.4
							c0.4-2.4,0.5,0,0.6-3.5c-0.7,0.2-0.3-4.4-1-6.8c0.2-1.2,0.3-1.4,0.4,1.1c0.5-0.3,0.1-3.7,0-4.8c-0.2-0.7-0.5-1.8-0.7-2.5
							c-0.1,1-0.4,0.6-1-1.4l-0.1-0.1c0.3,1.7,0.4,4,0.5,6c0,1,0.1,2,0.1,2.9c0,0.9,0.1,1.6,0.3,2.2l-0.3-0.6c-0.2,2,0,4.2,0,6.1
							c0,1,0,1.9-0.1,2.6c-0.1,0.8-0.3,1.4-0.6,1.8c-0.3-0.2-0.2,0.8-0.7,0.6c0,1,0,2-0.1,3l-0.1-0.6l-0.4,2.5l-0.5,2.5l-0.1-0.2
							c-0.1,2.4-0.2,4.4-0.4,5.9c0.2,0.1,0.3-0.1,0.2,0.8c-0.1,0.8-0.3,1.4-0.5,1.9l0,0l0,0c-0.5,1.2-1.1,1.8-1.8,3.2
							c0.6-1.5,1.1-3,1.6-4.5c-0.3-0.5-0.7-0.2-1.8,1.8c0.3-0.9,0.1-1.4-0.3-0.3c0.1,0.2-0.9,2.9-0.2,2c-0.7,2.1-2.1,4.7-3.7,7.4
							c-1.6,2.8-3.5,5.6-5.2,8.5c2.5-4.1-2.7,2.8,0.3-1.6c-1.3,1.3-1.7,2.1-2.1,2.8c-0.3,0.8-0.6,1.6-1.8,3.2
							c-0.4,0.1,1.3-1.7,1.5-2.7c-4.1,5-5.8,9.3-9.7,14.3l-0.6-0.1C155.4,123.2,154.7,124.3,154,125.5z M147.5,136.2
							c-0.6,1.1-1.2,2.1-1.8,3.2c0.1-0.1,0.1-0.2,0.2-0.3l-1.5,3.3c1.3-1.8,2.5-2.8,1.1,0c0-0.3-0.7,0.3-0.3-0.7
							c-1.3,1.7-3.8,5.5-2.6,4.8c1.4-3.8,1.3-0.4,2.4-3.3c-0.4,1.7-1.5,3.1-2.1,4.6c0.5-1.7-1-0.1-2.5,1.9c-0.5,1-2.2,3.4-3.1,4.9
							c0.7-0.3,0,1.2,1.8-1.2c-0.5,1-1.4,2.4-2.7,3.8c0.4-0.6,1.1-1.7,0.9-1.8c-1.1,0.7-1.9,1.9-2.5,2.4c-0.4,0.5-0.7,1-1.1,1.5
							c0.1-0.1,0.3-0.2,0.4-0.3l-0.9,1.9c1.5-2.3,0.9-0.9,1.1-0.7c-0.4-0.4-1.1,1.4-1.7,2.1l1.7-1.3c-0.4,1-2.4,2.5-1.7,2.5
							c2.8-3.3,3.8-4.7,6-8.1l-1.3,1.1c2.4-3.8,2.2-1.8,5-6c0.4-1,1.4-2.6,2.2-4.1c0.8-1.5,1.4-2.7,1-2.9c-0.1,0.7,2.1-2.3,2.7-3.9
							c0.3-2,3.3-6.8,2.1-5.5c-0.9,1.3-1.6,3.2-2.7,4l1.5-2.6L148,137C148.7,136.2,148.3,136.1,147.5,136.2z M112.8,173.2
							C112.8,173.1,112.8,173.1,112.8,173.2L112.8,173.2L112.8,173.2z"/>
						<path class="st1" d="M104.3,31.9c-0.4,0.8-1.5,2.5-1,2.4C102.9,34.1,105.4,31.2,104.3,31.9z"/>
						<path class="st1" d="M102.6,33.8c0,0.2,0.2,0.2-0.3,1c0.4-0.7,0.9-1.5,1.3-2.2C103.2,32.9,102.9,33.4,102.6,33.8z"/>
						<path class="st1" d="M98.7,34.5c-0.4,1.4-0.7,2.2-1.8,4.1c-0.6,0.1-0.3-0.7,0.2-1.7c0.5-1,1.1-2.2,1-2.9
							c-1.1,1.7-1.6,3-1.9,4.2c-0.4,1.2-0.6,2.3-1.2,4c0.3-0.4,0.6-1.1,1.1-1.9c0.4-0.8,0.9-1.6,1.4-2.5
							C98.2,36.3,99,34.8,98.7,34.5z"/>
						<path class="st1" d="M98.5,32.3c-0.3,0.7-0.7,1.4-1,2.1l0.2-0.2c0.3-0.7,0.7-1.4,1-2.1L98.5,32.3z"/>
						<path class="st1" d="M138.5,16.1c0.1,0.3,1.3,0.1,1.9,0.2C139.9,16.1,139.2,16,138.5,16.1z"/>
						<path class="st1" d="M45.2,40.8c4.7-1.3,9.7-1.9,14.6-1.7c-1.1-0.1-2.1,0-3.2,0c-1.1,0.1-2.2,0.1-3.3,0.2
							C51,39.5,48.4,39.9,45.2,40.8z"/>
						<path class="st1" d="M177.3,43.9c-0.4-0.9-0.9-1.7-1.3-2.4c-0.5-0.7-0.9-1.3-1.3-1.9c-0.9-1.2-1.8-2.3-3-3.8
							c1.3,2.3,2.3,3.6,3.3,5c0.2,0.3,0.5,0.7,0.7,1c0.2,0.4,0.4,0.7,0.6,1.1c0.4,0.8,0.7,1.7,0.9,2.8L177.3,43.9z"/>
						<path class="st1" d="M174.4,43.6c0.2-0.4,0.6,0.2,1.1,0.8c0.4,0.7,0.8,1.3,0.9,1c-0.5-1.2-0.8-1.5-1-1.7
							c-0.2-0.2-0.4-0.4-0.8-1.5C174.5,42.7,174.4,43.2,174.4,43.6z"/>
						<path class="st1" d="M170.8,22.2c0.4,0.2,0.8,0.5,1.2,0.8l-0.9-0.7L170.8,22.2z"/>
						<path class="st1" d="M178.4,61l-0.1-0.4c-0.1,0.7-0.1,1.4-0.2,2C178.2,62.1,178.3,61.5,178.4,61z"/>
						<path class="st1" d="M178.1,60.1l0.2,0.4L178.1,60.1z"/>
						<path class="st1" d="M173,22.6c-0.5-0.5-1-1.1-1.5-1.6l-1-0.5C171.4,21.2,172.2,21.9,173,22.6z"/>
						<path class="st1" d="M181.6,39.7c-0.3-0.6-0.7-1.1-1-1.6c0.1,0.2,0.4,0.8,0.6,1.3C181.4,39.9,181.6,40.2,181.6,39.7z"/>
						<path class="st1" d="M177.2,73.5c0,0.7-0.1,1.4-0.1,2l0.1-0.2c0-0.7,0.1-1.4,0.1-2L177.2,73.5z"/>
						<path class="st1" d="M187.1,53.5c0.3-1.4,0.6,3.8,0.7,1C187.4,52.1,187.3,53.1,187.1,53.5z"/>
						<path class="st1" d="M182.3,80.2c-0.1,0.3-0.1,0.6-0.2,0.9C182.2,80.7,182.2,80.4,182.3,80.2z"/>
						<path class="st1" d="M182.3,80.2c0.2-0.9,0.6-1.8,0.6-2.5C182.4,78.8,182.4,79.2,182.3,80.2z"/>
						<path class="st1" d="M179.1,90.6c0.1-0.3,0.2-0.5,0.3-0.8c-0.1,0.9,0,0.5,0.1-0.3c0.3-0.9,0.1-0.9,0.1-1c0-0.2,0-0.4,0-0.6
							c0,0.3-0.1,0.5-0.1,0.8C179.1,90,178.8,90.8,179.1,90.6z"/>
						<path class="st1" d="M150.7,119.9c2-2.5,2.6-3.1,2.8-2.8c1.9-2.4,1.1-2.4,2.1-4C153.6,116,153.1,116.4,150.7,119.9z"/>
						<path class="st1" d="M155.6,113.1c0.2-0.3,0.4-0.6,0.7-1C156,112.6,155.8,112.9,155.6,113.1z"/>
						<polygon class="st1" points="186.7,79.2 186.8,81.4 186.9,80.6 						"/>
						<path class="st1" d="M147.8,123.7c0.4-0.5,0.9-1.3,1.3-1.6C148.9,121.8,147.4,124.2,147.8,123.7z"/>
						<path class="st1" d="M160.9,117.9c0.4-0.1,1.5-1.8,2-2.4C162.2,116.3,161,116.7,160.9,117.9z"/>
						<path class="st1" d="M143.9,132.4c0.3-0.5,1.1-1.2,1.1-0.6C145.3,130.9,145.4,129.5,143.9,132.4z"/>
						<polygon class="st1" points="157.4,122.5 157.7,122.2 158.8,120.3 						"/>
						<path class="st1" d="M166.3,119.5c1.1-2.2-3.1,2.5-0.9-1.1c-3.6,4.1,0.7,0-1.7,3.2C165.2,119.8,166.3,119.2,166.3,119.5z"/>
						<path class="st1" d="M163.7,121.6c-0.2,0.3-0.4,0.5-0.7,0.9C163.2,122.1,163.5,121.8,163.7,121.6z"/>
						<path class="st1" d="M142.7,148.6c0.2-0.3,0.2-0.6,0.3-0.8C142.9,148.1,142.8,148.4,142.7,148.6z"/>
						<path class="st1" d="M156.6,132.1l1.5-3.3c-1.1,2.2-4.4,7.2-3.7,7.3c1.2-1.6,2.3-3.6,2.7-4.6L156.6,132.1z"/>
						<path class="st1" d="M123.8,160.1l0.8-1.4l-1.3,1.5C123.7,159.8,123.5,160.9,123.8,160.1z"/>
						<path class="st1" d="M123,160.5l0.2-0.3C123.2,160.3,123.1,160.4,123,160.5z"/>
						<path class="st1" d="M146,142.5c0.6-1,1.1-1.8,1.6-2.8C147.2,140,145.6,142.5,146,142.5z"/>
						<polygon class="st1" points="117.8,170 119.3,167.7 117.6,170.2 						"/>
						<path class="st1" d="M115.1,172.2L115,172c0,0.1-0.1,0.2-0.1,0.2l0,0.2C115,172.3,115,172.3,115.1,172.2z"/>
						<path class="st1" d="M129.6,173.6c1-1.4,1.4-2.8,1-2.5l-1.9,2.7c0.9-0.4,0.5-0.8,1.8-2.3L129.6,173.6z"/>
						<path class="st1" d="M49,124.3c0.8,0.2,3.4,2.6,3.4,2.9c-0.4-0.1-2-1.2-1.2-0.3c0.9,0.4,1.8,0.6,2.7,1
							c1.3,1.2,0.6,1.1-0.7,0.5c-0.6-0.3-1.4-0.7-2.1-1.1c-0.7-0.4-1.4-0.8-1.8-1.1c0.7,0.6,1.4,1.1,1.9,1.5c0.6,0.4,1.1,0.7,1.6,1
							c1.1,0.6,2.2,1.2,3.9,2.3c-1-0.7-1.5-1.3-1.9-1.8c0.2-0.6,3.1,1.7,5.5,3c-1.4-1.1-0.4-0.8,0.8-0.3c0.2,0.1,0.4,0.1,0.5,0.2
							c0.1,0,0.3,0.1,0.4,0.1l-0.3-0.2c0.1,0,0-0.2-0.1-0.4c-2.1-1-3.2-2.3-4.4-3.1c0.3,0.8-0.7,0.2-2-0.7c-1.3-0.9-2.7-2.1-3.5-2.6
							l-1.7-1.2l-0.6-0.5c-0.1-0.2,0.2-0.1,1.3,0.5c-0.9-0.5-3.4-2.7-3.4-2.3c-1.9-1.7-3.9-3.4-5.7-5.2c-0.1-0.2-0.3-0.4-0.4-0.6
							c-0.2-0.1-0.3-0.1-0.3-0.1c-2-2-4-4-6-6l-1.5-1.5l-1.2-1.4c-0.8-1-1.5-1.9-2.3-3c-2.8-4.1-5.1-8.9-6.6-13.8
							c0.4,1.5,0.6,2.8,1.1,4.3c-1.5-2,0.9,2.5,0.1,2c-0.6-0.9-1.2-2.4-1.3-3.4c-0.4-0.2-0.2,1.1-0.6,1.1c0.3,1,0.6,1.7,0.9,2.3
							c0.4,0.6,0.7,1.1,1.1,1.5c0.4,0.5,0.8,0.9,1.2,1.4c0.4,0.6,0.8,1.2,1.2,2.1c-0.4,0-1.3-0.8,0.1,1.3c-0.1-0.2-0.3-0.3-0.4-0.5
							c1.2,1.6,1.5,2.4,1.8,3c0.2,0.6,0.4,1,1.6,1.7l-0.5,0.3c0.7,0.6,1.7,1.5,2.6,2.6c1.1,1.1,2.2,2.1,2.9,2.9l-0.2,0
							c2.4,2,3,2.6,3.7,3.3c0.7,0.7,1.4,1.5,4,3.7L40,118c1.6,1.8,2.4,1.7,3.6,2.9c-0.2,0-0.1,0.5-1.4-0.5c2.3,1.7,4.6,3.3,6.9,4.8
							C51,126.2,49.1,124.7,49,124.3z"/>
						<path class="st1" d="M56.8,131c0.4,0.3,0.8,0.5,1.3,0.8C57.6,131.5,57.2,131.2,56.8,131z"/>
						<path class="st1" d="M22.8,88c0.2,0.7,0.4,1.4,0.6,2.1C23.2,89.4,23,88.7,22.8,88z"/>
						<path class="st1" d="M67.9,136.1c-1.2-1,1.2,0.2,1.5,0.2l-4.7-2.6c-0.1,0.2-0.7,0.1-0.6,0.3L67.9,136.1z"/>
						<path class="st1" d="M63.5,132.5c-0.2,0-0.8-0.1-1.4-0.3l2.5,1.4C64.7,133.5,64.5,133.2,63.5,132.5z"/>
						<polygon class="st1" points="58.6,142.2 57.8,141.8 56.5,141.2 						"/>
						<path class="st1" d="M46.3,133.2c0.7,1,2.7,2.1,3.3,2.5C47.5,134.2,48.5,134.7,46.3,133.2z"/>
						<path class="st1" d="M46.9,137.8c-0.7-0.4-1.5-0.9-2.2-1.4l0.2,0.2C45.6,137,46.2,137.4,46.9,137.8z"/>
						<path class="st1" d="M19.1,72c0-0.4,0-0.7,0-1.1C19.1,71.4,19.1,71.7,19.1,72z"/>
						<path class="st1" d="M21.8,90.4c-0.4-2.6-0.1-1.8,0.4-0.6c0.5,1.2,1.2,2.8,1.3,1.9c-0.3-0.9-0.7-1.7-1-2.6l0.3,0.2
							c-0.3-1.1-0.6-2.2-0.9-3.3c-0.2,0.8-0.1,1.3-0.5,1.2c-0.4-2.2-0.4-2.6-0.3-2.8c0.1-0.2,0.3-0.3,0.2-2c-0.3-1.6-0.5-3.3-0.5-5
							l0.1,0.4c0-0.4-0.1-0.6-0.1-0.7c-0.3-5.6,0.3-11.1,2.1-16.2c0.8-2.8-1.2,1.3-0.9-0.9c-0.3,0.8-0.6,1.7-1,2.7
							c-0.3,1-0.6,1.9-0.8,2.8c-0.4,1.8-0.5,3.2-0.2,3.4c-0.1-0.1-0.2-0.4-0.4,0.3l0.4,2.1l0.4-1.9c0.1,0.5,0.1,1.3,0.1,2.3
							c0,0.9,0,2,0,3c0,2.1,0,4-0.1,4.7c-0.3-1.9-0.5-2.4-0.7-3c-0.1-0.3-0.1-0.7-0.2-1.3c0-0.3,0-0.7,0-1.2c0-0.5,0.1-1,0.2-1.7
							c-0.2,0.2-0.6,1.2-0.6,0c-0.1,3.2,0,6.2,0.4,9.2C19.9,84.2,20.6,87.3,21.8,90.4z"/>
						<path class="st1" d="M44.1,40.5L44.1,40.5C44.2,40.5,44.2,40.5,44.1,40.5z"/>
						<path class="st1" d="M42.1,41c-0.9,0.6-1.8,1.1-2.6,1.7c0.7-0.3,1.4-0.6,2.2-0.8l1.1-0.4l1.1-0.3l0.2-0.6
							c-0.2,0.1-0.7,0.4-1.2,0.6c-0.5,0.2-1,0.4-1.4,0.4L42.1,41z"/>
						<path class="st1" d="M36.6,44.5c2-1.2,1.6-1.7,0.3-1.4c0.9-0.6,1.3-0.6,1.5-0.6c0.2,0,0.4,0,1-0.5c-0.1-0.2-0.8,0-1.5,0.4
							c-0.7,0.3-1.4,0.8-1.7,1L36.6,44.5z"/>
						<polygon class="st1" points="24.6,55.8 24.7,55.1 23.8,56.5 						"/>
						<path class="st1" d="M24.7,55.1c0.3-0.5,0.6-0.9,0.9-1.3c-0.2,0-0.4,0-0.7,0.1C24.8,54.4,24.7,54.7,24.7,55.1z"/>
						<path class="st1" d="M28.2,50.7c0.5-0.5,1-1,1.6-1.6C29.3,49.6,28.7,50.1,28.2,50.7z"/>
						<path class="st1" d="M27,52L27,52c0.4-0.5,0.9-0.9,1.3-1.3C27.8,51.1,27.3,51.5,27,52z"/>
						<path class="st1" d="M25.6,53.8c0.5,0,1,0,2.2-1.8l-0.8,0C26.6,52.6,26,53.2,25.6,53.8z"/>
						<polygon class="st1" points="33.5,125.6 31.7,124.2 31.8,124.4 33.6,125.8 						"/>
						<path class="st1" d="M24.7,116.2c-0.4-0.4-0.8-0.7-1.1-0.9C24,115.7,24.4,116,24.7,116.2z"/>
						<path class="st1" d="M16.2,109.5c-1.1-2.7,2.5,3.1-0.1-1.5c0.1-0.3,0.5,0,1.1,0.7c0.6,0.6,1.3,1.7,1.9,2.7
							c-0.4,0.1-1.5-1.9-1-0.4c1.3,1.1,1.4,1.8,1.5,1c0.9,1,1.6,1.5,2.1,1.9c0.5,0.4,1,0.7,1.8,1.3c-1.2-1.2-2.7-3.2-4.2-5.5
							c-1.5-2.2-2.8-4.6-4-6.3c-1.6-1.8-1.8-0.2-2.7,0.3c0,0.2,0.6,1.7,1.4,3.1C15,108.3,15.9,109.6,16.2,109.5z"/>
						<path class="st1" d="M18,113.9c0.8,1.2,1.1,1.4,1.7,2.1C19.8,115.6,18.7,114.8,18,113.9z"/>
						<path class="st1" d="M13.5,84.3c-0.2-0.2-0.6-2.3-0.8-1.8c0.2,1.1,0.4,2.2,0.7,3.3C13.3,85,13.4,84.7,13.5,84.3z"/>
						<path class="st1" d="M13.7,87.1c-0.1-0.5-0.2-0.9-0.3-1.4C13.4,86.1,13.5,86.5,13.7,87.1z"/>
						<path class="st1" d="M13.6,84.2c0,0.1,0,0.1-0.1,0.2C13.5,84.4,13.6,84.4,13.6,84.2z"/>
						<path class="st1" d="M33.2,46.6c0.1,0.2,1-0.6,1.5-0.9c-0.2,0.1-0.5,0.2-0.7,0.4C33.7,46.2,33.4,46.4,33.2,46.6z"/>
						<path class="st1" d="M77.8,44.4l0.8,0.8C78.3,44.9,78.2,44.7,77.8,44.4z"/>
						<path class="st1" d="M95.4,53.7c0.1,0,0.1,0.1,0.2,0.2C95.6,53.8,95.5,53.7,95.4,53.7z"/>
						<path class="st1" d="M95.7,53.9c0.3,0.4,0.7,1.2,1.1,2.1c0.2,0.4,0.4,0.9,0.5,1.3c0.2,0.4,0.3,0.8,0.5,1l-0.1-0.1
							c0.2,0.6,0.5,1.2,0.7,1.8c-0.1-0.5-0.3-1-0.5-1.6c-0.2-0.6-0.4-1.3-0.7-1.9c-0.3-0.6-0.5-1.2-0.8-1.6
							C96.1,54.4,95.9,54.1,95.7,53.9z"/>
					</g>
				</g>
			</g>
		</g>
	</g>
</g>
</svg>
