<?xml version="1.0" encoding="UTF-8" standalone="no"?>
<!-- Created with Inkscape (http://www.inkscape.org/) -->

<svg
   xmlns:dc="http://purl.org/dc/elements/1.1/"
   xmlns:cc="http://creativecommons.org/ns#"
   xmlns:rdf="http://www.w3.org/1999/02/22-rdf-syntax-ns#"
   xmlns:svg="http://www.w3.org/2000/svg"
   xmlns="http://www.w3.org/2000/svg"
   xmlns:sodipodi="http://sodipodi.sourceforge.net/DTD/sodipodi-0.dtd"
   xmlns:inkscape="http://www.inkscape.org/namespaces/inkscape"
   id="svg2"
   version="1.1"
   inkscape:version="0.91 r13725"
   width="974.96051"
   height="161.13536"
   viewBox="0 0 974.96051 161.13536"
   sodipodi:docname="logo2.svg">
  <metadata
     id="metadata8">
    <rdf:RDF>
      <cc:Work
         rdf:about="">
        <dc:format>image/svg+xml</dc:format>
        <dc:type
           rdf:resource="http://purl.org/dc/dcmitype/StillImage" />
        <dc:title></dc:title>
      </cc:Work>
    </rdf:RDF>
  </metadata>
  <defs
     id="defs6" />
  <sodipodi:namedview
     pagecolor="#ffffff"
     bordercolor="#666666"
     borderopacity="1"
     objecttolerance="10"
     gridtolerance="10"
     guidetolerance="10"
     inkscape:pageopacity="0"
     inkscape:pageshadow="2"
     inkscape:window-width="1600"
     inkscape:window-height="838"
     id="namedview4"
     showgrid="false"
     fit-margin-top="0"
     fit-margin-left="0"
     fit-margin-right="0"
     fit-margin-bottom="0"
     inkscape:zoom="0.38974359"
     inkscape:cx="487.46056"
     inkscape:cy="72.812988"
     inkscape:window-x="-8"
     inkscape:window-y="-8"
     inkscape:window-maximized="1"
     inkscape:current-layer="svg2" />
  <path
     style="fill:#fafafa"
     d="m 712.70573,157.12799 c -2.1973,-2.2671 -3.9952,-4.53057 -3.9952,-5.0299 0,-1.17039 23.0604,-35.6708 33.4129,-49.98874 8.7227,-12.06381 8.3543,-12.11432 -7.0432,-0.96574 -5.7779,4.18352 -11.3186,7.60639 -12.3125,7.60639 -2.7863,0 -10.3072,-8.16933 -10.3072,-11.19585 0,-2.6698 -0.051,-2.66417 -5.3125,0.58224 -17.5007,10.79888 -27.5349,11.32704 -34.9595,1.84013 l -3.1895,-4.07553 -9.2934,6.42451 c -5.1114,3.53347 -9.938,6.4245 -10.7257,6.4245 -2.6781,0 -10.2695,-7.72635 -10.2596,-10.44199 0.01,-1.47565 1.042,-6.99621 2.3036,-12.26791 l 2.2939,-9.5849 -6.8342,3.0224 c -3.7588,1.66232 -6.9996,3.0224 -7.2018,3.0224 -0.2023,0 -4.1552,5.90625 -8.7842,13.125 -9.3039,14.50887 -11.0411,15.50503 -17.0312,9.76614 -4.2412,-4.06333 -4.3878,-6.42322 -0.6934,-11.16006 2.5858,-3.31531 2.2582,-3.20717 -4.0625,1.34112 -3.7812,2.72096 -9.34648,6.79908 -12.36722,9.0625 -3.02074,2.26341 -6.31136,4.1153 -7.3125,4.1153 -2.76366,0 -10.32025,-8.14583 -10.32025,-11.125 0,-3.22138 -0.59339,-3.2566 -4.80704,-0.28531 -7.8169,5.51216 -16.4216,8.91031 -22.5624,8.91031 -5.32544,0 -6.83382,-0.59536 -10.66656,-4.2101 -5.47674,-5.16522 -5.70615,-8.79433 -1.0919,-17.27223 5.73658,-10.53998 26.67514,-24.72554 42.30545,-28.66129 5.3531,-1.34793 6.11351,-1.26703 7.63389,0.8122 0.92871,1.27008 1.68162,4.02986 1.67316,6.13283 -0.0144,3.55919 -0.62026,4.06845 -8.76259,7.36461 -11.7133,4.74177 -23.186,12.57761 -27.1208,18.52349 -1.76939,2.67372 -2.90576,5.1726 -2.5253,5.55307 2.21505,2.21505 31.443,-17.79503 42.43941,-29.05493 4.93497,-5.05321 9.72635,-9.18765 10.64765,-9.18765 2.4157,0 7.498,3.56351 8.3872,5.88084 0.4907,1.27861 -1.3787,4.46482 -5.273,8.98751 -7.38889,8.58114 -12.77717,15.69633 -12.77717,16.87219 0,0.48376 2.39062,-0.75884 5.3125,-2.76134 2.92187,-2.00249 11.49997,-7.13841 19.06247,-11.41315 9.8479,-5.56652 15.3376,-9.60539 19.344,-14.23165 8.4171,-9.71916 21.5767,-23.3344 22.5536,-23.3344 1.3002,0 7.4774,5.97059 7.4774,7.2273 0,0.60317 -2.959,4.4269 -6.5755,8.49719 -3.6165,4.07028 -7.3878,8.4405 -8.3806,9.71159 -2.0291,2.59788 -3.9424,3.23989 15.9364,-5.34745 5.0079,-2.16333 9.6052,-3.62432 10.2163,-3.24664 1.8312,1.13173 2.9248,8.28665 1.4864,9.72501 -0.7259,0.72594 -4.8456,2.79105 -9.1549,4.58912 l -7.835,3.26923 -1.5804,9.34982 c -0.8692,5.14241 -1.446,9.775 -1.2816,10.29465 0.1643,0.51965 3.954,-1.50724 8.4214,-4.50419 13.78,-9.24433 42.5684,-25.66253 49.6315,-28.30516 9.6612,-3.61474 11.2663,-3.35154 12.7699,2.09401 1.5099,5.46855 0.7032,6.73266 -5.7623,9.02921 -2.6216,0.9312 -9.3189,4.64318 -14.883,8.24884 -9.456,6.12783 -13.034,9.68884 -16.6158,16.53712 -1.3682,2.61601 -1.2712,2.72226 1.5171,1.66216 9.21,-3.50167 33.1917,-20.35945 42.676,-29.99889 4.4871,-4.56052 8.5203,-7.58292 10.1188,-7.58292 2.8254,0 6.7953,3.55866 6.7953,6.09131 0,0.8357 -3.6248,5.97278 -8.0551,11.41574 -4.4304,5.44296 -8.7033,11.10736 -9.4955,12.58756 -1.2716,2.37605 -0.804,2.25647 3.9926,-1.02092 2.9882,-2.04171 11.9833,-7.4628 19.9891,-12.04687 14.4907,-8.29715 14.6049,-8.39923 25.3855,-22.68074 6.6414,-8.79814 11.6837,-14.34608 13.0385,-14.34608 2.351,0 7.6449,4.9085 7.6449,7.08831 0,0.7162 -1.9687,3.88058 -4.375,7.03195 -2.4062,3.15137 -4.375,5.98552 -4.375,6.29811 0,0.3126 2.1094,0.0785 4.6875,-0.52019 2.5781,-0.59869 7.9219,-1.10196 11.875,-1.11836 8.3868,-0.0348 12.1875,2.67167 12.1875,8.67861 l 0,3.70843 11.4215,-5.55896 c 14.9863,-7.29398 19.0265,-8.04718 23.0234,-4.29223 3.5429,3.32834 3.8263,5.23817 1.1119,7.49097 -1.0688,0.88701 -2.4802,2.61606 -3.1365,3.84232 -1.7888,3.34245 12.0672,-4.20409 17.6324,-9.60333 4.1113,-3.98865 8.3995,-5.42674 10.354,-3.47228 0.4528,0.45284 3.4859,0.87471 6.7402,0.9375 5.6437,0.10889 6.0552,0.3643 8.9122,5.53287 2.4761,4.47917 2.7562,5.94383 1.6155,8.44722 l -1.3798,3.02851 5.9151,-2.96188 c 3.2533,-1.62903 8.7993,-3.9057 12.3243,-5.05927 5.5278,-1.80893 8.0828,-3.93868 18.5777,-15.48534 6.6927,-7.36338 12.959,-13.84328 13.9251,-14.39979 1.1825,-0.68111 3.0165,0.24799 5.6111,2.84261 l 3.8544,3.85444 -8.4089,9.39553 c -4.6249,5.16754 -8.1852,9.61932 -7.9117,9.89283 0.2735,0.27352 5.4729,-1.71802 11.5541,-4.42564 6.0812,-2.70761 12.1298,-4.92294 13.4413,-4.92294 2.1603,0 4.8227,4.23032 4.8227,7.66271 0,0.68748 -4.1667,3.17512 -9.2594,5.52809 l -9.2594,4.27812 -1.4464,9.07804 c -0.7955,4.99292 -1.6736,9.78117 -1.9514,10.64054 -0.7092,2.1946 0.075,1.98137 5.3809,-1.46315 10.7864,-7.00232 21.5357,-7.0758 21.5357,-0.1472 0,2.52404 -1.2717,3.77076 -6.5625,6.43344 -3.6094,1.81648 -10.3606,5.83912 -15.0027,8.93919 l -8.4402,5.63648 -4.9973,-3.46313 c -5.7998,-4.01928 -6.2508,-7.02353 -3.0762,-20.49132 1.0363,-4.39625 1.6265,-8.25085 1.3116,-8.56578 -0.3149,-0.31493 -3.6113,0.81858 -7.3253,2.5189 -6.1725,2.82587 -7.4413,4.17833 -14.7675,15.74104 -5.6526,8.92129 -8.7316,12.65315 -10.4465,12.66179 -3.0035,0.0151 -9.4434,-5.96423 -9.4434,-8.76813 0,-1.13446 2.3072,-5.28456 5.127,-9.22245 2.8199,-3.93789 4.8548,-7.43203 4.5221,-7.76474 -0.9888,-0.9888 -9.3555,4.13406 -24.9538,15.27898 -8.0738,5.76872 -15.7428,10.48858 -17.042,10.48858 -1.2993,0 -4.4674,-2.33006 -7.0403,-5.17791 -4.5156,-4.99825 -4.6552,-5.42862 -4.0227,-12.40373 l 0.6552,-7.22581 -7.2567,5.34208 c -10.911,8.03224 -15.6402,12.2258 -18.075,16.02787 -2.794,4.36311 -4.3489,4.3217 -8.7117,-0.23201 l -3.5156,-3.6695 4.0431,-6.64299 c 2.2237,-3.65365 6.2386,-9.58111 8.9221,-13.17214 3.2192,-4.30805 4.1296,-6.24958 2.6761,-5.70732 -7.7204,2.88034 -21.9807,11.11817 -26.6701,15.40676 -7.8188,7.1504 -23.6658,17.4547 -26.8436,17.4547 -2.9817,0 -6.8356,-3.61158 -6.7743,-6.34843 0.067,-2.99482 2.8757,-5.73674 10.6422,-10.38937 9.6233,-5.76488 23.068,-18.6014 23.068,-22.02444 0,-1.49659 -5.5465,-0.44808 -17.8544,3.37519 l -9.7295,3.02232 -17.8683,27.11986 c -9.8276,14.91593 -21.4354,33.02612 -25.7953,40.24487 -4.3598,7.21875 -8.7624,14.10937 -9.7835,15.3125 -2.8178,3.32031 -6.795,2.63482 -11.2238,-1.93451 z m 170.9116,-85.31007 3.9259,-5.46667 -3.6528,1.27335 c -6.0424,2.10639 -13.5826,9.52507 -16.9798,16.70611 -1.76,3.72046 -3.2001,7.45278 -3.2001,8.29404 0,1.87565 14.5055,-13.28571 19.9068,-20.80683 z m -444.80482,66.47204 c -4.99334,-8.07939 -4.06349,-9.58966 9.87466,-16.03847 21.00464,-9.71829 38.35296,-20.71284 48.9173,-31.00149 8.47889,-8.25761 9.78289,-10.13648 10.94074,-15.76392 2.5874,-12.57557 -1.28516,-19.93833 -12.06096,-22.93107 -11.46784,-3.18493 -10.46312,-3.95711 -32.86402,25.25749 -32.38262,42.23248 -33.40203,43.4375 -36.74691,43.4375 -3.09434,0 -10.66276,-7.78784 -10.66276,-10.97188 0,-3.55017 4.36227,-9.5553 22.99602,-31.65645 10.6404,-12.62037 19.19824,-23.09407 19.01742,-23.2749 -0.18083,-0.18082 -5.06719,1.06163 -10.8586,2.76101 -13.09892,3.84361 -13.38912,3.84306 -15.15331,-0.029 -1.15354,-2.53173 -1.08513,-3.51025 0.33928,-4.85273 2.38689,-2.24957 11.89533,-5.22549 25.25303,-7.90359 l 10.96885,-2.19915 7.98459,-9.37418 c 4.39152,-5.1558 7.89305,-9.46543 7.78116,-9.57697 -0.11188,-0.11153 -12.40375,0.68874 -27.31524,1.77839 -29.19105,2.13311 -31.0132,1.89869 -31.0132,-3.98974 0,-5.89104 2.10343,-6.74345 26.25,-10.63786 23.84791,-3.84624 52.92014,-6.85388 79.7352,-8.24891 13.15871,-0.68458 15.818,-0.49914 18.55442,1.29383 3.90737,2.5602 8.11796,11.6345 7.13778,15.38272 -0.71095,2.71864 -1.00268,2.74936 -26.10699,2.74936 l -25.388,0 -7.50639,9.65893 -7.50637,9.65894 7.24174,1.47718 c 10.31778,2.10464 17.03843,5.92639 21.02471,11.95586 3.08145,4.66086 3.4389,6.31789 3.4389,15.94168 0,9.63103 -0.42719,11.60763 -4.13663,19.14025 -5.47372,11.11529 -16.63117,22.27591 -31.51618,31.52514 -12.81715,7.96431 -39.56826,20.64202 -43.55651,20.64202 -1.44673,0 -3.53463,-1.73591 -5.06373,-4.21004 z M 99.664741,115.29837 c -5.59993,-3.64958 -7.16469,-5.35796 -7.14281,-7.79837 0.0496,-5.53501 33.620219,-46.50752 64.230199,-78.39216 l 15.85685,-16.51716 -6.63671,1.96529 c -10.94931,3.24235 -35.67055,13.42016 -51.57099,21.23193 l -14.934289,7.3371 4.892029,0.625 c 3.81424,0.48731 5.52097,1.56076 7.74678,4.87236 3.48615,5.18674 3.70779,11.77461 0.50394,14.97846 -2.0175,2.0175 -5.20153,2.48049 -22.456309,3.26541 l -20.1055,0.91459 -5.173,6.70517 C 54.336741,88.14544 30.066791,108.75 24.515621,108.75 c -2.77626,0 -8.30506,-5.37501 -8.30506,-8.07404 0,-3.76999 6.87359,-14.07926 14.41834,-21.62516 l 9.07281,-9.07421 -17.34603,0.82804 -17.3460301,0.82804 -2.49709,-5.50383 C -0.10716914,60.35471 -0.86286914,51.90645 1.1301709,50.67468 2.6905609,49.71031 22.948701,47.90029 50.921491,46.22594 l 22.83594,-1.36688 10.91406,-6.33878 C 116.53168,20.01617 168.67768,0 185.02428,0 c 6.83893,0 8.63455,1.59078 9.55679,8.46651 0.62172,4.63527 0.19164,5.32365 -11.54989,18.48652 -15.01227,16.82956 -48.88713,58.59041 -63.56229,78.35947 -5.99663,8.07813 -11.2923,14.68114 -11.76815,14.67337 -0.47585,-0.008 -4.09205,-2.11714 -8.035999,-4.6875 z M 210.83925,112.7598 c -2.54578,-2.60712 -4.62869,-5.63899 -4.62869,-6.73749 0,-1.09851 2.59138,-5.51742 5.75861,-9.8198 3.30044,-4.48333 4.86724,-7.48047 3.67046,-7.02122 -1.14848,0.44071 -7.99015,4.88334 -15.20368,9.8725 -7.21355,4.98917 -14.81149,10.13071 -16.8843,11.42565 l -3.76875,2.35445 -4.91116,-4.79563 c -2.70116,-2.6376 -4.91118,-5.57873 -4.91118,-6.53587 0,-0.95712 3.56186,-6.35465 7.91525,-11.9945 l 7.91525,-10.25426 -9.01664,2.60066 c -7.09014,2.04501 -9.78256,3.52688 -12.60145,6.93569 -1.97165,2.38426 -4.62065,5.46002 -5.88667,6.83502 -1.26603,1.375 -4.03384,4.89063 -6.1507,7.8125 -4.42192,6.1035 -7.84538,6.79621 -11.95715,2.41944 -4.61905,-4.91677 -5.32472,-3.62251 17.6757,-32.41944 14.73507,-18.44859 16.74982,-19.76433 21.88852,-14.29443 3.26335,3.47368 3.41193,5.51817 0.62483,8.59789 -3.29407,3.63989 17.90346,-4.35207 22.03048,-8.30601 1.82842,-1.75172 4.19583,-3.18495 5.26095,-3.18495 2.04861,0 8.56035,5.43552 8.53912,7.12782 -0.008,0.54845 -3.58993,5.23728 -7.96232,10.41963 l -7.94981,9.42244 19.52483,-11.55507 c 16.00423,-9.47155 27.41505,-17.63388 26.03465,-18.623 -0.14292,-0.1024 -7.65314,0.3723 -16.6894,1.05488 -9.03627,0.68258 -17.85815,0.8825 -19.60419,0.44427 -5.24847,-1.31728 -5.94685,-9.30853 -1.04285,-11.93307 1.17099,-0.6267 8.58602,-2.0382 16.47784,-3.13668 7.89182,-1.09847 15.75501,-2.24871 17.47376,-2.55608 1.71875,-0.30737 7.06147,-1.17837 11.87272,-1.93554 5.42028,-0.85303 9.73018,-2.29966 11.33057,-3.80314 3.15542,-2.96438 5.93688,-3.09365 8.18853,-0.38057 1.47199,1.77364 3.64957,1.93559 16.36428,1.21702 11.45092,-0.64714 15.61581,-0.43215 18.9971,0.98064 4.94085,2.06442 8.59006,7.99978 8.00932,13.02695 l -0.38752,3.3545 -24.34288,0.86661 -24.34286,0.86661 -5.38041,6.00839 c -6.36692,7.11004 -25.79015,33.99548 -35.7219,49.44589 -4.60671,7.16648 -7.81494,10.9375 -9.30518,10.9375 -1.25092,0 -4.35731,-2.13309 -6.90308,-4.7402 z m 93.0892,-6.90286 c -1.49484,-1.59119 -2.71789,-3.3682 -2.71789,-3.94892 0,-0.58072 2.39062,-4.18107 5.3125,-8.00079 2.92187,-3.81972 6.1022,-8.02703 7.06739,-9.34957 0.96518,-1.32254 -3.37857,1.36324 -9.65279,5.96839 C 286.4499,103.36171 277.7185,107.5 268.12422,107.5 c -7.48374,0 -8.11127,-0.2353 -11.78417,-4.4185 -3.03982,-3.46215 -3.87949,-5.57021 -3.87949,-9.73975 0,-12.20378 25.05354,-42.83402 29.3497,-35.88269 0.41097,0.66498 2.40635,0.87723 4.43416,0.47167 4.84423,-0.96884 9.62435,2.19594 12.0365,7.96903 2.2757,5.44651 1.36591,9.75099 -3.09701,14.65304 l -3.34835,3.67779 3.75,-2.38242 c 2.0625,-1.31033 10.78125,-6.44131 19.375,-11.40217 8.59375,-4.96086 17.24439,-10.28725 19.22365,-11.83641 3.27643,-2.56444 3.88097,-2.65628 6.75153,-1.02562 5.14446,2.92239 6.21841,5.65633 3.85012,9.80117 l -2.0497,3.58725 4.17682,-1.15328 c 8.38398,-2.31493 17.66517,-7.1743 19.73444,-10.33239 1.16643,-1.7802 3.00535,-3.23672 4.08649,-3.23672 2.71081,0 9.22665,4.80709 9.22665,6.807 0,0.90022 -3.30304,5.58044 -7.34009,10.40049 -9.28712,11.08842 -10.0073,12.21778 -6.64294,10.41722 5.76649,-3.08613 15.24738,-0.37871 15.22841,4.34872 -0.002,0.63336 -3.79942,3.1091 -8.4375,5.50163 -4.63808,2.39254 -12.02299,6.75191 -16.4109,9.6875 -4.38792,2.93559 -9.25152,5.33744 -10.80802,5.33744 -1.67632,0 -4.41671,-1.80719 -6.72234,-4.43314 -4.46133,-5.08119 -4.48072,-5.00571 4.13646,-16.10294 3.15592,-4.0642 5.59188,-7.53563 5.41323,-7.71427 -0.17863,-0.17864 -4.47331,0.89689 -9.54372,2.39007 l -9.21891,2.71487 -8.88934,11.5703 c -9.62218,12.52417 -12.02174,13.76449 -16.79645,8.68205 z M 276.37687,85.3125 c 8.68761,-9.07598 14.41739,-16.5625 12.67602,-16.5625 -3.01288,0 -15.04977,8.75086 -18.05355,13.125 -3.68466,5.36561 -5.81117,11.875 -3.87937,11.875 0.64924,0 4.81484,-3.79687 9.2569,-8.4375 z"
     id="path3338"
     inkscape:connector-curvature="0" />
</svg>
