<?xml version="1.0" encoding="iso-8859-1"?>
<!-- Generator: Adobe Illustrator 19.0.0, SVG Export Plug-In . SVG Version: 6.00 Build 0)  -->
<svg version="1.1" id="Layer_1" xmlns="http://www.w3.org/2000/svg" xmlns:xlink="http://www.w3.org/1999/xlink" x="0px" y="0px"
	 viewBox="0 0 512.001 512.001" style="enable-background:new 0 0 512.001 512.001;" xml:space="preserve">
<g>
	<g>
		<path d="M488.094,145.591c-0.133-26.398-21.719-47.876-48.117-47.876c-5.886,0-77.456,0-109.375,0
			c-25.971,0-47.282,20.786-48.094,46.596l-7.022,60.263c29.893,78.667,29.954,76.075,31.317,82.603
			c13.826-118.577,15.177-130.329,16.347-141.38c0-0.001,0-0.001,0-0.002c0.012-2.224,1.821-4.019,4.045-4.013
			c2.224,0.007,4.023,1.811,4.023,4.035l0.01,341.785c0,13.476,10.924,24.4,24.4,24.4c13.476,0,24.4-10.924,24.4-24.4v-195.03
			h10.536V487.6c0,13.476,10.924,24.4,24.4,24.4s24.4-10.924,24.4-24.4c0-318.579-0.432-143.729-0.442-341.955
			c0-2.35,1.905-4.255,4.255-4.255c2.351,0,4.255,1.905,4.255,4.255c0,0.033,0,0.068,0,0.102l-0.36,149.277
			c-0.027,11.23,9.055,20.355,20.284,20.382c0.017,0,0.032,0,0.05,0c11.206,0,20.305-9.071,20.332-20.284l0.36-149.38
			C488.094,145.692,488.094,145.641,488.094,145.591z M403.102,179.79c-0.89,0.648-2.096,0.65-2.987,0.001
			c-5.376-3.918-23.436-18.129-23.436-32.243c0-7.309,5.981-13.021,13.021-13.021c3.612,0,6.875,1.476,9.231,3.852
			c1.114,1.124,2.027,2.446,2.677,3.914c0.648-1.468,1.562-2.79,2.677-3.914c2.356-2.376,5.619-3.852,9.231-3.852
			c7.184,0,13.02,5.83,13.02,13.021C426.536,161.661,408.479,175.871,403.102,179.79z"/>
	</g>
</g>
<g>
	<g>
		<circle cx="385.285" cy="42.14" r="42.14"/>
	</g>
</g>
<g>
	<g>
		<path d="M287.328,287.791c-0.393-0.999-39.351-100.415-53.619-141.931c-9.254-26.929-24.772-40.584-46.12-40.584
			c-29.951,0-38.887,0-69.11,0c-21.349,0-36.865,13.655-46.12,40.584c-14.343,41.734-46.911,130.841-47.239,131.736
			c-3.783,10.346,1.538,21.8,11.885,25.582c10.347,3.784,21.801-1.54,25.582-11.884c0.278-0.759,39.64-109.97,39.64-109.97
			s-13.256,70.778-28.33,148.534c-1.329,6.861,3.959,13.2,10.879,13.2c4.296,0,9.451,0,15.221,0v144.113
			c0,12.978,10.091,24.032,23.062,24.493c13.617,0.484,24.809-10.411,24.809-23.92V343.06h10.335v144.113
			c0,12.978,10.092,24.032,23.062,24.493c13.617,0.484,24.809-10.411,24.809-23.92V343.06c5.771,0,10.925,0,15.22,0
			c6.955,0,12.206-6.348,10.879-13.2l-8.332-43.015c-21.586-111.454-18.934-96.808-20.082-106.198
			c17.197,47.113,45.055,118.202,46.429,121.708c4.02,10.253,15.59,15.311,25.851,11.288
			C286.296,309.621,291.35,298.047,287.328,287.791z M172.301,183.711c-0.891,0.648-2.096,0.65-2.987,0.001
			c-5.376-3.918-23.436-18.13-23.436-32.243c0-7.191,5.829-13.021,13.021-13.021c5.319,0,9.887,3.194,11.908,7.767
			c2.021-4.572,6.587-7.767,11.908-7.767c7.191,0,13.021,5.829,13.021,13.021C195.735,165.58,177.678,179.791,172.301,183.711z"/>
	</g>
</g>
<g>
	<g>
		<path d="M153.035,9.422c-22.831,0-41.339,18.508-41.339,41.339c0,22.913,18.611,41.339,41.339,41.339
			c22.749,0,41.339-18.455,41.339-41.339C194.374,27.93,175.866,9.422,153.035,9.422z"/>
	</g>
</g>
<g>
</g>
<g>
</g>
<g>
</g>
<g>
</g>
<g>
</g>
<g>
</g>
<g>
</g>
<g>
</g>
<g>
</g>
<g>
</g>
<g>
</g>
<g>
</g>
<g>
</g>
<g>
</g>
<g>
</g>
</svg>
